<svg xmlns="http://www.w3.org/2000/svg" xmlns:xlink="http://www.w3.org/1999/xlink" width="337.377" height="239" viewBox="0 0 337.377 239">
  <defs>
    <clipPath id="clip-path">
      <rect id="Rectangle_66" data-name="Rectangle 66" width="76.754" height="78.818" fill="#fff"/>
    </clipPath>
    <clipPath id="clip-path-2">
      <rect id="Rectangle_76" data-name="Rectangle 76" width="287.631" height="238.801" fill="#fff"/>
    </clipPath>
  </defs>
  <g id="Group_815" data-name="Group 815" transform="translate(-881.268 -4855.948)">
    <g id="Group_794" data-name="Group 794" transform="translate(1141.891 4855.948)">
      <g id="Group_793" data-name="Group 793" clip-path="url(#clip-path)">
        <path id="Path_619" data-name="Path 619" d="M64.3,119.482c-.625-1.613-1.618-2.972-2.083-4.673a14.025,14.025,0,0,1-.343-5.627c.027-.189-.235-.343-.286-.113-.747,3.313-.461,8.381,2.548,10.607.136.1.2-.089.164-.194" transform="translate(-39.204 -69.752)" fill="#fff"/>
        <path id="Path_620" data-name="Path 620" d="M72.921,142.335c-.135-.167-.272-.332-.408-.5-.212-.26-.7.081-.462.371s.486.717.84.858c.14.056.351-.015.326-.2a1.206,1.206,0,0,0-.3-.535" transform="translate(-46.086 -90.745)" fill="#fff"/>
        <path id="Path_621" data-name="Path 621" d="M81.114,148.768c-.156-.151-.314-.294-.482-.432-.258-.213-.506.279-.243.414.192.1.383.186.582.268.139.057.243-.153.142-.25" transform="translate(-51.393 -94.93)" fill="#fff"/>
        <path id="Path_622" data-name="Path 622" d="M96.327,153.283c-2.745-.048-5.313.765-7.874-.71-.208-.12-.523.175-.289.335a9.073,9.073,0,0,0,8.178.569c.1-.038.11-.192-.015-.194" transform="translate(-56.389 -97.659)" fill="#fff"/>
        <path id="Path_623" data-name="Path 623" d="M47.847,74.178a19.585,19.585,0,0,0,5.915,13.3c5.8,5.546,14.181,6.754,21.632,4.2a20.623,20.623,0,0,0,9.954-7.16A20.721,20.721,0,0,0,63.007,52.391c-4.635,1.342-8.1,4.39-10.8,8.314a26.6,26.6,0,0,0-3.572,6.91,19.2,19.2,0,0,0-.792,6.564m4.165-9.446c2.68-5.438,7.588-9.83,13.494-10.871A19.254,19.254,0,0,1,82.6,59.728c5.251,5.637,5.991,14.579,2.462,21.3C79.829,91,64.92,94.322,56.1,87.117a17.154,17.154,0,0,1-6.029-10.246,19.884,19.884,0,0,1,1.936-12.138" transform="translate(-30.619 -33.062)" fill="#fff"/>
        <path id="Path_624" data-name="Path 624" d="M75.463,29.507c-5.208.522-13.667.186-15.79-5.665-1.715-4.725.729-10.729,3.665-14.511.306-.394,1.5-2.532-.06-1.832a17.327,17.327,0,0,0-3.285,2.521,34.865,34.865,0,0,1-3.474,2.43c-2.6,1.573-5.616,2.734-8.687,1.989-5.44-1.32-6.6-8.106-6.075-12.82.065-.589.23-1.333-.405-1.571a1.069,1.069,0,0,0-1.32.8c-.458,5.035-2.428,12.542-8.84,11.934-5.727-.544-7.656-5.845-10.628-9.856-.459-.62-1.042-.031-1.2.4-.257.7.286,1.864.55,2.494a13.581,13.581,0,0,1,1.063,5.526,12.053,12.053,0,0,1-1.726,6.738c-1.614,2.371-4.295,2.718-6.955,2.744a41.608,41.608,0,0,1-5.668-.389c-.457-.058-3.707-.539-2.95.621a17.107,17.107,0,0,0,2.862,2.775,34.324,34.324,0,0,1,2.645,2.8c1.7,2.022,3.659,4.757,3.075,7.446C11.14,39.236,4.883,41.618.509,43.622a.891.891,0,0,0,.262,1.686A51.3,51.3,0,0,1,8.193,47.1c2.7.9,5.445,1.6,5.349,4.978a14.889,14.889,0,0,1-2.428,7.045c-.737,1.221-1.68,2.3-2.485,3.471-.862,1.258-1.872,3.767.864,2.627,4.623-1.926,9.621-5.2,14.831-3.66,6.259,1.852,5.9,11.455,5.543,16.259-.057.769,1.254,1.494,1.528.547,1.442-4.989,4.406-10.761,9.193-13.291,2.521-1.333,5.207-.068,7.659,1.213s5.114,2.733,6.551,5.191a2.575,2.575,0,0,0,.472.662.844.844,0,0,0,1.392-.825c-.842-2.776-1.608-5.346-1.268-8.293a12.824,12.824,0,0,1,2.99-7.134c3.957-4.35,10.923-3.124,15.962-1.771.638.171,1.3-.489.815-1.08-3.016-3.658-6.789-7.17-7.082-12.219-.308-5.3,4.1-7.751,8.252-9.745,1.051-.505-.093-1.647-.867-1.569M65.9,40.06c-.1,4.727,2.692,8.786,5.994,12-5.314-1.109-11.144-1.721-15.187,2.723a15.492,15.492,0,0,0-3.39,12.908,29.012,29.012,0,0,0-3.8-2.725c-2.737-1.672-6.159-3.572-9.236-2.249-2.682,1.154-4.722,3.8-6.314,6.157a30.633,30.633,0,0,0-2.292,4.009c.044-4.946-1.17-10.825-5.685-13.183-2.759-1.441-5.6-.777-8.537-.137A27.408,27.408,0,0,0,12.167,61.2a35.772,35.772,0,0,0,1.8-3.246c1.127-2.28,2.091-5.187,1.535-7.757-.56-2.59-2.878-3.742-5.161-4.617a32.734,32.734,0,0,0-6.176-1.689c4.211-2.26,9.883-4.575,10.742-9.6.436-2.55-1.177-5.493-3.041-7.75A48.8,48.8,0,0,0,8.2,22.769l-.089-.086a29.739,29.739,0,0,0,5.491.065c2.871-.142,6.128-.542,7.876-2.976,1.606-2.236,1.591-5.6,1.732-8.287.019-.372.027-.772.02-1.184,2.456,2.535,5.833,4.612,9.334,4.37,3.938-.272,6.225-3.436,7.613-6.8.693,3.875,2.585,7.712,6.611,8.766,3.1.811,6.583-.38,9.333-1.862a27.948,27.948,0,0,0,3.446-2.247c-2.1,3.932-3.517,8.987-1.5,13.135,2.314,4.753,8.606,5.336,13.83,5.515-3.3,1.909-5.909,4.7-6,8.887" transform="translate(0 0)" fill="#fff"/>
      </g>
    </g>
    <g id="Group_814" data-name="Group 814" transform="translate(881.268 4856.147)">
      <g id="Group_813" data-name="Group 813" clip-path="url(#clip-path-2)">
        <path id="Path_698" data-name="Path 698" d="M52.728,73.182a26.014,26.014,0,0,0-1.054,3.96.352.352,0,0,0,.641.269,25.757,25.757,0,0,0,1.8-3.646.753.753,0,1,0-1.383-.583" transform="translate(-8.569 -12.047)" fill="#fff"/>
        <path id="Path_699" data-name="Path 699" d="M57.522,63.887a6.664,6.664,0,0,0,.535-2.675c.1-1.278-2.083-1.28-1.986,0a6.664,6.664,0,0,0,.536,2.675.534.534,0,0,0,.916,0" transform="translate(-9.298 -9.992)" fill="#fff"/>
        <path id="Path_700" data-name="Path 700" d="M66.329,72.5a.881.881,0,0,0,0-1.761.881.881,0,0,0,0,1.761" transform="translate(-10.859 -11.731)" fill="#fff"/>
        <path id="Path_701" data-name="Path 701" d="M60.545,97.8a.937.937,0,0,0,0,1.874.937.937,0,0,0,0-1.874" transform="translate(-9.891 -16.219)" fill="#fff"/>
        <path id="Path_702" data-name="Path 702" d="M51.666,115.882q-.243,1.75-.485,3.5a.373.373,0,0,0,.718.2q.667-1.635,1.335-3.268c.4-.98-1.424-1.471-1.567-.432" transform="translate(-8.487 -19.121)" fill="#fff"/>
        <path id="Path_703" data-name="Path 703" d="M64.074,113.792a.6.6,0,0,0,0,1.2.6.6,0,0,0,0-1.2" transform="translate(-10.53 -18.871)" fill="#fff"/>
        <path id="Path_704" data-name="Path 704" d="M70.621,110.466a.454.454,0,0,0,.754-.439,23.225,23.225,0,0,0-1.944-4.258c-.556-1.055-2.254-.063-1.6.934a23.235,23.235,0,0,0,2.788,3.763" transform="translate(-11.225 -17.465)" fill="#fff"/>
        <path id="Path_705" data-name="Path 705" d="M43.518,137.27a28.349,28.349,0,0,0-1.084,3.956.454.454,0,0,0,.825.348,29.278,29.278,0,0,0,1.76-3.89c.368-.913-1.19-1.381-1.5-.414" transform="translate(-7.036 -22.676)" fill="#fff"/>
        <path id="Path_706" data-name="Path 706" d="M58.727,137.7a7.664,7.664,0,0,0,.521-3.191,1.039,1.039,0,0,0-2.076,0,7.651,7.651,0,0,0,.522,3.191.6.6,0,0,0,1.033,0" transform="translate(-9.481 -22.141)" fill="#fff"/>
        <path id="Path_707" data-name="Path 707" d="M69.874,125.539a1.025,1.025,0,0,0-.2,1.577q.881,1.046,1.768,2.086c.347.407,1.128-.027.924-.538q-.5-1.265-1.014-2.525a1.026,1.026,0,0,0-1.476-.6" transform="translate(-11.508 -20.796)" fill="#fff"/>
        <path id="Path_708" data-name="Path 708" d="M59.012,155.1c-.316,1.788-.953,3.805-.63,5.626a.445.445,0,0,0,.8.105c.935-1.522,1.068-3.573,1.415-5.293.209-1.041-1.406-1.476-1.589-.438" transform="translate(-9.667 -25.623)" fill="#fff"/>
        <path id="Path_709" data-name="Path 709" d="M75.922,160.45c.234.586,1.305.594,1.22-.165-.158-1.385-.35-2.754-.576-4.13-.217-1.319-2.469-.743-2.024.558.43,1.26.888,2.5,1.381,3.737" transform="translate(-12.352 -25.772)" fill="#fff"/>
        <path id="Path_710" data-name="Path 710" d="M47.026,180.96q-.771,2.461-1.48,4.938a.646.646,0,0,0,1.175.5q1.194-2.277,2.326-4.581a1.1,1.1,0,1,0-2.021-.853" transform="translate(-7.549 -29.88)" fill="#fff"/>
        <path id="Path_711" data-name="Path 711" d="M64.316,175.759c.4,1.168.836,2.286,1.334,3.416.277.626,1.09.133,1.011-.426-.166-1.171-.38-2.306-.647-3.458-.257-1.107-2.064-.606-1.7.468" transform="translate(-10.658 -28.966)" fill="#fff"/>
        <path id="Path_712" data-name="Path 712" d="M42.094,204.711a.835.835,0,0,0,0,1.67.835.835,0,0,0,0-1.67" transform="translate(-6.847 -33.949)" fill="#fff"/>
        <path id="Path_713" data-name="Path 713" d="M65.637,201.23a26.212,26.212,0,0,0,.538-4.953c.078-1.335-2.155-1.338-2.077,0a26.135,26.135,0,0,0,.538,4.953.523.523,0,0,0,1,0" transform="translate(-10.629 -32.384)" fill="#fff"/>
        <path id="Path_714" data-name="Path 714" d="M82.759,180.717a.637.637,0,0,0,1.178-.319,18.722,18.722,0,0,0-1.021-4.625c-.4-1.363-2.6-.728-2.111.581a19.064,19.064,0,0,0,1.954,4.362" transform="translate(-13.389 -29.023)" fill="#fff"/>
        <path id="Path_715" data-name="Path 715" d="M29.933,218.9a1.039,1.039,0,0,0,0,2.076,1.039,1.039,0,0,0,0-2.076" transform="translate(-4.798 -36.302)" fill="#fff"/>
        <path id="Path_716" data-name="Path 716" d="M54.628,215.047c.231,1.144.34,2.706,1.215,3.561a.764.764,0,0,0,1.188-.153c.576-1.1.215-2.566.079-3.745a1.258,1.258,0,1,0-2.482.336" transform="translate(-9.054 -35.408)" fill="#fff"/>
        <path id="Path_717" data-name="Path 717" d="M86.126,216.868c.616.652,1.456-.058,1.356-.789a10.961,10.961,0,0,0-1.275-2.957c-.521-1.075-2.1-.136-1.6.934a10.522,10.522,0,0,0,1.518,2.812" transform="translate(-14.015 -35.265)" fill="#fff"/>
        <path id="Path_718" data-name="Path 718" d="M99.194,213.465c.3.4,1.027.193.867-.365-.2-.68-.366-1.357-.517-2.048a.944.944,0,0,0-1.376-.561.955.955,0,0,0-.19,1.471c.424.491.827.985,1.216,1.5" transform="translate(-16.205 -34.887)" fill="#fff"/>
        <path id="Path_719" data-name="Path 719" d="M136.064,37.961a10.641,10.641,0,0,0,1.517-3.037c.457-1.19-1.578-1.8-1.937-.534a10.086,10.086,0,0,0-.581,3.156c.018.46.66.835,1,.415" transform="translate(-22.398 -5.587)" fill="#fff"/>
        <path id="Path_720" data-name="Path 720" d="M128.112,51.233a.779.779,0,0,0,0,1.557.779.779,0,0,0,0-1.557" transform="translate(-21.121 -8.496)" fill="#fff"/>
        <path id="Path_721" data-name="Path 721" d="M137.471,60.281a.961.961,0,0,0-1.087.943c-.037.8-.061,1.6-.069,2.406-.008.655.846.677,1.064.144q.465-1.141.89-2.3a.956.956,0,0,0-.8-1.2" transform="translate(-22.606 -9.995)" fill="#fff"/>
        <path id="Path_722" data-name="Path 722" d="M147.723,45.927a.858.858,0,0,0,0-1.715.858.858,0,0,0,0,1.715" transform="translate(-24.361 -7.332)" fill="#fff"/>
        <path id="Path_723" data-name="Path 723" d="M137.309,82.738a.982.982,0,0,0,0,1.964.982.982,0,0,0,0-1.964" transform="translate(-22.614 -13.721)" fill="#fff"/>
        <path id="Path_724" data-name="Path 724" d="M123.413,97.381a35.1,35.1,0,0,0-1.969,5.908.5.5,0,0,0,.908.382,36.164,36.164,0,0,0,2.759-5.822c.432-1.034-1.288-1.524-1.7-.468" transform="translate(-20.138 -16.052)" fill="#fff"/>
        <path id="Path_725" data-name="Path 725" d="M135.582,104.7a.96.96,0,0,0,0,1.919.96.96,0,0,0,0-1.919" transform="translate(-22.331 -17.363)" fill="#fff"/>
        <path id="Path_726" data-name="Path 726" d="M147.151,99.015a.835.835,0,0,0,0-1.67.835.835,0,0,0,0,1.67" transform="translate(-24.269 -16.143)" fill="#fff"/>
        <path id="Path_727" data-name="Path 727" d="M112.521,116.421a.813.813,0,0,0,0,1.625.813.813,0,0,0,0-1.625" transform="translate(-18.53 -19.307)" fill="#fff"/>
        <path id="Path_728" data-name="Path 728" d="M133.782,122.365c.058,1.137-.055,2.724.6,3.706a.674.674,0,0,0,1.15,0c.654-.982.541-2.569.6-3.706.078-1.511-2.425-1.513-2.347,0" transform="translate(-22.186 -20.105)" fill="#fff"/>
        <path id="Path_729" data-name="Path 729" d="M150.478,114.95c.47.521,1.21-.042,1.094-.637a16.61,16.61,0,0,0-.539-2.043,1.094,1.094,0,1,0-2,.844,18.379,18.379,0,0,0,1.446,1.836" transform="translate(-24.688 -18.486)" fill="#fff"/>
        <path id="Path_730" data-name="Path 730" d="M128.783,145.574c-.495,1.06-1.231,2.181-1.083,3.4a.515.515,0,0,0,.764.438c1.053-.609,1.493-1.8,2.034-2.832.6-1.142-1.18-2.149-1.715-1" transform="translate(-21.174 -24.058)" fill="#fff"/>
        <path id="Path_731" data-name="Path 731" d="M142.785,138.244a11.113,11.113,0,0,0,.882,2.921c.265.524.928.2.988-.268a11.577,11.577,0,0,0-.173-3.121c-.148-1.094-1.929-.662-1.7.468" transform="translate(-23.676 -22.743)" fill="#fff"/>
        <path id="Path_732" data-name="Path 732" d="M157.021,153a.364.364,0,0,0,.494-.494,10.585,10.585,0,0,0-1.831-2.151c-.514-.535-1.349.3-.814.814A10.609,10.609,0,0,0,157.021,153" transform="translate(-25.655 -24.905)" fill="#fff"/>
        <path id="Path_733" data-name="Path 733" d="M140.952,158.193a9.293,9.293,0,0,0,.46,3.031.536.536,0,0,0,1.023,0,9.276,9.276,0,0,0,.459-3.031c.078-1.249-2.017-1.251-1.941,0" transform="translate(-23.375 -26.079)" fill="#fff"/>
        <path id="Path_734" data-name="Path 734" d="M123.729,167.818c-.236.83-.447,1.657-.635,2.5a.521.521,0,0,0,.948.4c.442-.736.856-1.476,1.254-2.237.581-1.11-1.228-1.855-1.567-.661" transform="translate(-20.411 -27.729)" fill="#fff"/>
        <path id="Path_735" data-name="Path 735" d="M110.691,170.4c-.648.893-1.285,1.8-1.959,2.669-.269.35.268.888.618.618.873-.674,1.776-1.311,2.669-1.959a.971.971,0,1,0-1.328-1.328" transform="translate(-18.02 -28.18)" fill="#fff"/>
        <path id="Path_736" data-name="Path 736" d="M99.949,183.719q-.581,1.046-1.171,2.085a.589.589,0,0,0,.921.712c.552-.572,1.109-1.138,1.668-1.7.929-.939-.781-2.241-1.418-1.094" transform="translate(-16.368 -30.393)" fill="#fff"/>
        <path id="Path_737" data-name="Path 737" d="M128.353,182.7c.249.784.521,1.548.825,2.313.2.509,1.033.492,1.019-.138-.017-.807-.063-1.6-.138-2.407-.119-1.3-2.08-.943-1.707.231" transform="translate(-21.278 -30.124)" fill="#fff"/>
        <path id="Path_738" data-name="Path 738" d="M146.016,178.095a17.872,17.872,0,0,0,1.848,3.942c.4.537,1.477.447,1.409-.381a17.374,17.374,0,0,0-1.145-4.143c-.46-1.346-2.637-.7-2.111.582" transform="translate(-24.201 -29.314)" fill="#fff"/>
        <path id="Path_739" data-name="Path 739" d="M169.783,175.044c.4.343,1.131.025.943-.549a23.689,23.689,0,0,0-2.553-4.7c-.687-1.134-2.513-.018-1.754,1.025a24.076,24.076,0,0,0,3.364,4.222" transform="translate(-27.568 -28.08)" fill="#fff"/>
        <path id="Path_740" data-name="Path 740" d="M214.675,82.329a.9.9,0,0,0,0-1.806.9.9,0,0,0,0,1.806" transform="translate(-35.456 -13.354)" fill="#fff"/>
        <path id="Path_741" data-name="Path 741" d="M201.706,97.974a11.883,11.883,0,0,0,2.446-2.545,1.182,1.182,0,0,0-.119-1.752,1.171,1.171,0,0,0-1.724.33,12.417,12.417,0,0,0-1.381,3.368c-.074.411.363.885.779.6" transform="translate(-33.32 -15.495)" fill="#fff"/>
        <path id="Path_742" data-name="Path 742" d="M218.139,101.955a.9.9,0,0,0,0-1.806.9.9,0,0,0,0,1.806" transform="translate(-36.031 -16.608)" fill="#fff"/>
        <path id="Path_743" data-name="Path 743" d="M227.928,99.169a1.027,1.027,0,0,0,0-2.054,1.027,1.027,0,0,0,0,2.054" transform="translate(-37.634 -16.105)" fill="#fff"/>
        <path id="Path_744" data-name="Path 744" d="M211.524,131.293c.626-.231.868-.89,1.144-1.451a.913.913,0,1,0-1.671-.7c-.113.591-.375,1.385-.021,1.932a.5.5,0,0,0,.548.223" transform="translate(-34.958 -21.306)" fill="#fff"/>
        <path id="Path_745" data-name="Path 745" d="M218.2,140.722a.652.652,0,0,0,1.01-.13c.581-1.042.132-2.381-.058-3.487a1.059,1.059,0,0,0-1.291-.733,1.073,1.073,0,0,0-.733,1.291c.188,1.011.243,2.345,1.073,3.059" transform="translate(-36.005 -22.61)" fill="#fff"/>
        <path id="Path_746" data-name="Path 746" d="M203.929,143.459a.963.963,0,0,0-1.295.621c-.223.669-.445,1.338-.658,2.01-.234.737.775,1.058,1.175.5.418-.585.827-1.175,1.236-1.767a.958.958,0,0,0-.459-1.361" transform="translate(-33.489 -23.778)" fill="#fff"/>
        <path id="Path_747" data-name="Path 747" d="M210.729,157.388a.534.534,0,0,0,.916,0,7.952,7.952,0,0,0,.521-2.4,1.016,1.016,0,1,0-1.959,0,7.954,7.954,0,0,0,.521,2.4" transform="translate(-34.858 -25.489)" fill="#fff"/>
        <path id="Path_748" data-name="Path 748" d="M225.419,152.808a.6.6,0,0,0,1.094-.46q-.216-1.279-.453-2.551a1.1,1.1,0,1,0-2.021.852q.682,1.086,1.381,2.16" transform="translate(-37.128 -24.71)" fill="#fff"/>
        <path id="Path_749" data-name="Path 749" d="M211,177.106c-.2.48-.405.951-.638,1.416-.214.43.359.962.709.547.369-.435.757-.842,1.155-1.25.791-.811-.742-1.878-1.226-.713" transform="translate(-34.878 -29.285)" fill="#fff"/>
        <path id="Path_750" data-name="Path 750" d="M222.831,186.006a.538.538,0,0,0,.8-.458,4.628,4.628,0,0,0-.754-2.36c-.48-1.012-2.076-.114-1.521.888a4.43,4.43,0,0,0,1.476,1.929" transform="translate(-36.69 -30.306)" fill="#fff"/>
        <path id="Path_751" data-name="Path 751" d="M210.438,201.737a8,8,0,0,1-.2,2.708.523.523,0,0,0,.782.449c1.086-.778,1.129-2.361.853-3.553-.215-.932-1.671-.536-1.436.4" transform="translate(-34.865 -33.302)" fill="#fff"/>
        <path id="Path_752" data-name="Path 752" d="M230.209,202.02a.561.561,0,0,0,.812-.625,7.848,7.848,0,0,0-1.632-2.744.959.959,0,1,0-1.507,1.163,7.951,7.951,0,0,0,2.326,2.206" transform="translate(-37.746 -32.865)" fill="#fff"/>
        <path id="Path_753" data-name="Path 753" d="M196.589,137.8a58.064,58.064,0,0,0-5.205-5.063c-.993-.759-3.7.242-3.579.968.684,4.087,1.577,8.584,2.728,13.03q1.614-2.4,3.237-4.78c-.008-.042-.025-.083-.033-.125a.543.543,0,0,1,.067.075c.576.592,1.176,1.168,1.793,1.718q1.351-2.015,2.694-4.037c-.559-.592-1.134-1.193-1.7-1.785m-12.946,66.892a15.185,15.185,0,0,0,.334-1.627c-2.369,1.8-4.788,3.553-7.182,5.289a.008.008,0,0,0-.008.008,15.268,15.268,0,0,1,3.353.484l.25-.175c1.6-1.134,3.195-2.294,4.771-3.462-.5-.192-1.009-.359-1.518-.517m41.875,20.629a33.74,33.74,0,0,0-5.689-2.744c.167.15.342.309.509.467-.5.292-1.009.592-1.51.893-.7-.617-1.4-1.243-2.11-1.86.2-.142.4-.284.592-.425-.517-.184-1.026-.359-1.543-.542a1.647,1.647,0,0,1-.217-.067c-1.118-.375-2.236-.751-3.345-1.151-.526.309-1.043.634-1.568.943-.634-.509-1.26-1.009-1.885-1.518.25-.15.509-.3.759-.45-.551-.225-1.1-.459-1.635-.709-.292-.133-.584-.275-.876-.417-.192-.1-.384-.192-.576-.292a94.08,94.08,0,0,1-8.433-5.03c.275.275.559.534.842.792-.776.551-1.543,1.1-2.311,1.652-.167-.108-.325-.217-.484-.325a.28.28,0,0,0-.117-.042c.467-.809.918-1.627,1.368-2.452.017-.017.042-.025.058-.042-.592-.384-1.193-.767-1.785-1.16-1.034,1.71-2.077,3.42-3.153,5.105.751.559,1.518,1.1,2.286,1.618.676-.417,1.351-.834,2.019-1.26.45.375.893.742,1.351,1.109-.567.425-1.134.859-1.693,1.285.325.225.651.434.984.642.542-.392,1.084-.792,1.627-1.193.5.392,1,.776,1.5,1.16-.5.35-1.009.709-1.51,1.051.325.2.659.392.993.584.467-.317.943-.634,1.41-.959.551.417,1.109.826,1.668,1.235-.409.267-.817.517-1.218.776.434.25.859.475,1.3.7.075-.05.15-.092.225-.142.267-.167.542-.334.817-.5.667.484,1.335.968,1.994,1.451-.209.125-.417.259-.634.375.4.2.8.384,1.2.559a.841.841,0,0,1,.125.058c.125-.075.242-.142.367-.217.167.125.342.25.509.375.234.175.475.35.717.534,1.435.626,2.928,1.235,4.446,1.768-.6-.442-1.21-.876-1.81-1.31.659-.4,1.318-.8,1.985-1.2.7.567,1.4,1.126,2.1,1.693-.551.342-1.109.676-1.66,1.026.651.217,1.318.425,1.985.6.325-.2.651-.4.968-.592.492.392.976.767,1.46,1.159a21.04,21.04,0,0,0,2.377.3c-.025-.017-.042-.033-.067-.05.484-.3.976-.609,1.46-.918.392.334.784.667,1.176.993a12.027,12.027,0,0,0,1.218-.117c1.393-.2,3.262-2.077,1.426-3.22m-27.811-9.66c.742-.484,1.485-.968,2.219-1.468.384.334.784.659,1.176.976l-2,1.476c-.459-.325-.926-.659-1.393-.984m3.921,2.844c-.517-.392-1.043-.776-1.56-1.16.609-.442,1.21-.893,1.818-1.335a1.191,1.191,0,0,1,.125-.092c.517.409,1.026.809,1.552,1.21-.617.45-1.235.884-1.86,1.318-.025.017-.05.042-.075.058m.918.692c.651-.45,1.318-.893,1.985-1.335.576.442,1.151.876,1.735,1.31-.684.434-1.368.868-2.044,1.3l-1.677-1.276m4.755,3.637c-.651-.5-1.31-1-1.96-1.5.7-.425,1.41-.842,2.119-1.26.659.492,1.318.993,1.969,1.485l-2.127,1.276m2.686,2.01c-.234-.183-.475-.35-.717-.534-.3-.225-.609-.45-.909-.684.709-.409,1.426-.817,2.144-1.226.25.2.509.392.759.592.225.183.45.367.684.551-.659.434-1.31.868-1.96,1.3m2.87-2.227c-.384-.3-.759-.609-1.134-.909.6-.342,1.193-.692,1.793-1.043.409.35.817.709,1.235,1.059-.567.35-1.126.709-1.677,1.068-.075-.058-.15-.117-.217-.175m3.487,2.811c-.7-.567-1.41-1.134-2.11-1.7q.813-.513,1.627-1.051c.692.592,1.385,1.193,2.085,1.785-.534.317-1.068.642-1.6.968m2.8,2.261c-.509-.409-1.018-.826-1.527-1.235.509-.317,1.018-.642,1.518-.968.509.434,1.009.868,1.518,1.293-.509.3-1.009.6-1.51.909m2.344-1.393c-.509-.45-1.009-.9-1.518-1.343.476-.309.951-.617,1.418-.934l1.552,1.451-1.451.826m2.277,2.044c-.434-.392-.868-.776-1.3-1.168.45-.292.9-.592,1.343-.893a.418.418,0,0,0,.067.058c.275.459.559.918.843,1.376q-.488.288-.951.626m-15.407-49.116c-.033.267-.067.542-.083.817-.484.6-.976,1.2-1.468,1.793a14.288,14.288,0,0,0,1.718-1.143c.167-.125.092-.651-.167-1.468m-12.221-29.688c-.125.259-.242.526-.35.792a.276.276,0,0,0,.442.292c.067-.058.133-.125.2-.184-.1-.3-.2-.6-.292-.9m-2.886,6.156c.067.192.133.375.2.559a.422.422,0,0,0-.2-.559M177.236,179.1a14.87,14.87,0,0,0-1.3,2.6c-.092.225.217.384.384.234a16.9,16.9,0,0,0,2.344-2.828c-.475-.008-.951-.008-1.426-.008m-3.9,7.132a.487.487,0,0,0-.651.133c-.317.384-.784.876-.709,1.41a.288.288,0,0,0,.342.217c.517-.067.884-.717,1.143-1.109a.477.477,0,0,0-.125-.651M200.9,142.276c-.834,1.168-1.727,2.344-2.569,3.554.409.292.826.584,1.251.859.792-1.134,1.543-2.311,2.311-3.437-.309-.292-.642-.626-.993-.976m-5.305,1.343q1.351-2.015,2.694-4.037c-.559-.592-1.134-1.193-1.7-1.785a58.064,58.064,0,0,0-5.205-5.063c-.993-.759-3.7.242-3.579.968.684,4.087,1.577,8.584,2.728,13.03.275,1.076.567,2.152.868,3.22,1.093-1.66,2.186-3.32,3.295-4.98-.317-1-.617-2.01-.926-3.02-.008-.042-.025-.083-.033-.125a.543.543,0,0,1,.067.075c.576.592,1.176,1.168,1.793,1.718m.993-5.822a58.064,58.064,0,0,0-5.205-5.063c-.993-.759-3.7.242-3.579.968.684,4.087,1.577,8.584,2.728,13.03q1.614-2.4,3.237-4.78c-.008-.042-.025-.083-.033-.125a.543.543,0,0,1,.067.075c.926-1.368,1.86-2.736,2.786-4.1m7.507.083c-.876,1.185-1.752,2.369-2.6,3.579.259.459.509.9.734,1.3a.557.557,0,0,1,.058-.092c.792-1.143,1.56-2.294,2.319-3.453-.175-.45-.342-.893-.509-1.335m-7.507-.083a58.064,58.064,0,0,0-5.205-5.063c-.993-.759-3.7.242-3.579.968.684,4.087,1.577,8.584,2.728,13.03q1.614-2.4,3.237-4.78c-.008-.042-.025-.083-.033-.125a.543.543,0,0,1,.067.075c.926-1.368,1.86-2.736,2.786-4.1m0,0a58.064,58.064,0,0,0-5.205-5.063c-.993-.759-3.7.242-3.579.968.684,4.087,1.577,8.584,2.728,13.03q1.614-2.4,3.237-4.78c-.008-.042-.025-.083-.033-.125a.543.543,0,0,1,.067.075c.926-1.368,1.86-2.736,2.786-4.1m0,0a58.064,58.064,0,0,0-5.205-5.063c-.993-.759-3.7.242-3.579.968.684,4.087,1.577,8.584,2.728,13.03q1.614-2.4,3.237-4.78c-.008-.042-.025-.083-.033-.125a.543.543,0,0,1,.067.075c.926-1.368,1.86-2.736,2.786-4.1m0,0a58.064,58.064,0,0,0-5.205-5.063c-.993-.759-3.7.242-3.579.968.684,4.087,1.577,8.584,2.728,13.03q1.614-2.4,3.237-4.78c-.008-.042-.025-.083-.033-.125a.543.543,0,0,1,.067.075c.926-1.368,1.86-2.736,2.786-4.1m0,0a58.064,58.064,0,0,0-5.205-5.063c-.993-.759-3.7.242-3.579.968.684,4.087,1.577,8.584,2.728,13.03q1.614-2.4,3.237-4.78c-.008-.042-.025-.083-.033-.125a.543.543,0,0,1,.067.075c.926-1.368,1.86-2.736,2.786-4.1m0,0a58.064,58.064,0,0,0-5.205-5.063c-.993-.759-3.7.242-3.579.968.684,4.087,1.577,8.584,2.728,13.03q1.614-2.4,3.237-4.78c-.008-.042-.025-.083-.033-.125a.543.543,0,0,1,.067.075c.926-1.368,1.86-2.736,2.786-4.1m0,0a58.064,58.064,0,0,0-5.205-5.063c-.993-.759-3.7.242-3.579.968.684,4.087,1.577,8.584,2.728,13.03q1.614-2.4,3.237-4.78c-.008-.042-.025-.083-.033-.125a.543.543,0,0,1,.067.075c.926-1.368,1.86-2.736,2.786-4.1m0,0a58.064,58.064,0,0,0-5.205-5.063c-.993-.759-3.7.242-3.579.968.684,4.087,1.577,8.584,2.728,13.03q1.614-2.4,3.237-4.78c-.008-.042-.025-.083-.033-.125a.543.543,0,0,1,.067.075c.926-1.368,1.86-2.736,2.786-4.1m0,0a58.064,58.064,0,0,0-5.205-5.063c-.993-.759-3.7.242-3.579.968.684,4.087,1.577,8.584,2.728,13.03q1.614-2.4,3.237-4.78c-.008-.042-.025-.083-.033-.125a.543.543,0,0,1,.067.075c.926-1.368,1.86-2.736,2.786-4.1m0,0a58.064,58.064,0,0,0-5.205-5.063c-.993-.759-3.7.242-3.579.968.684,4.087,1.577,8.584,2.728,13.03q1.614-2.4,3.237-4.78c-.008-.042-.025-.083-.033-.125a.543.543,0,0,1,.067.075c.926-1.368,1.86-2.736,2.786-4.1m0,0a58.064,58.064,0,0,0-5.205-5.063c-.993-.759-3.7.242-3.579.968.684,4.087,1.577,8.584,2.728,13.03q1.614-2.4,3.237-4.78c-.008-.042-.025-.083-.033-.125a.543.543,0,0,1,.067.075c.926-1.368,1.86-2.736,2.786-4.1m10.644-30.455c-1.235-6.164-4.1-12.271-6.4-18.118Q197.244,80.139,193.769,71c-2.4-6.3-5.113-12.487-7.274-18.869-1.852-5.464-3.345-14.323-4.738-17.459-.284-.634-2.019-.209-2.035-.158a1.568,1.568,0,0,0-.559.8c-4.421,12.07-8.692,24.066-14.448,35.594-5.5,11.019-12.279,20.937-18.986,31.2-9.209-15.8-15.749-33.025-21.822-50.25,5.756,2.728,11.8,3.9,18.577,5.038,1.843.309,3.637-1.652,2.527-3.37-5.581-8.692-12.9-16.108-18.21-25.05A111.26,111.26,0,0,1,115.425.8a.934.934,0,0,0-1.693-.4c-2.711,4.83-4.3,12.421-5.681,17.743A120.854,120.854,0,0,1,102.1,35.378,204.6,204.6,0,0,1,83.835,68.235c-.918,1.376,1.051,2.895,2.361,2.294,6.615-3.036,13.947-6.431,19.728-11.278-1.835,4.363-3.378,8.825-5.781,12.963C96.748,78.07,91.785,83.284,87.6,88.6c-3.3,4.188-6.665,8.325-10.035,12.462C73.95,95.7,70.288,90.708,67.51,84.71c-2.394-5.163-4.63-10.41-6.9-15.641a45.059,45.059,0,0,0,12.562,2.294,2.044,2.044,0,0,0,2.169-2.744c-1.743-3.946-4.63-6.773-7.374-10.043a106.58,106.58,0,0,1-8.475-11.662,114.418,114.418,0,0,1-6.9-12.888c-1.9-4.129-2.961-9.343-5.864-12.846-.5-.609-2.094-1.118-2.277.083-.025.133-.033.267-.05.4a1.161,1.161,0,0,0-.25.559c-2.127,11.219-3.72,22.464-6.848,33.467-1.527,5.364-3.278,10.652-5.214,15.882-1.018,2.753-2.11,5.472-3.17,8.217-1.068,2.778-1.268,5.422-2.686,8.15a1.428,1.428,0,0,0,1.543,2.01,35.961,35.961,0,0,0,12.1-6.24A451.433,451.433,0,0,1,6.325,146.054c-.876,1.36.751,3.82,2.386,3.111A121.791,121.791,0,0,0,36.3,132.191C25.686,154.1,11.763,173.99.2,195.428a2.161,2.161,0,0,0,.617,2.544,1.56,1.56,0,0,0,.926.884c8.292,2.619,18.226,1.768,26.827,1.476,4.746-.167,9.493-.534,14.214-1.059-.517,2.945-1.043,5.864-1.276,8.884-.075.968-.225,2.035-.275,3.086-4.746,3.278-9.051,7.165-13.956,10.2A79.667,79.667,0,0,1,16.8,226.76c-3.136,1.368-8.158,4.479-11.645,4.413-.826-.017-1.81.609-1.2,1.543,2.753,4.229,8.517,1.193,12.087-.242a86.882,86.882,0,0,0,19.611-10.56c2.569-1.9,5.063-3.921,7.649-5.8a.839.839,0,0,0,.542-.175,3.324,3.324,0,0,0,.834-.8,39.466,39.466,0,0,1,9.176-4.922,35.336,35.336,0,0,1,10.919-2.044c2.5-.067,5.1.517,7.624.651q-11.924,8.946-24.207,17.409c-2.01,1.393-.475,5.147,1.944,3.662a308.586,308.586,0,0,0,29.813-20.729c4.621-3.645,9.1-7.432,13.63-11.178,4.68-3.879,9.56-7.658,15.874-8.058,5.689-.359,11.77.884,17.284,2.236,5.672,1.376,9.618,5.105,13.547,9.2,2.744,2.861,5.439,5.789,8.133,8.734l1.952,2.127c1.084-1.577,2.186-3.145,3.278-4.721-.651-.7-1.31-1.393-1.96-2.085-3.562-3.729-7.157-7.4-10.736-10.978a36.386,36.386,0,0,0-18.226-9.626c.15-2.636-.425-5.322-.492-7.991-.067-2.928.25-5.873-.058-8.767q15.328-.313,30.664-.342c-3.6,3.937-6.64,8.392-10.269,12.287a.95.95,0,0,0,.475,1.451c6.707,2.477,14.356,3.4,21.863,3.845,1.084.058,2.161.117,3.228.158q2.077-3.253,4.179-6.49c-1.051-.033-2.119-.092-3.187-.15-7.224-.384-14.84-.976-21.888.083,3.829-3.2,7.349-6.64,9.685-11.194,3.587-.008,7.165-.025,10.744-.184,1.426-.067,2.895-1.81,1.86-3.136-1.994-2.544-3.937-5.138-5.856-7.749a53.274,53.274,0,0,0,4.062-7.875c1.777-3.7,2.978-8.308,4.588-12.1.809-1.919-1.518-3.12-3.178-1.935a78.678,78.678,0,0,1-14.831,8.383c-.667-1.018-1.343-2.019-1.985-3.045,5-4.855,8.258-13.021,10.894-18.844A237.422,237.422,0,0,0,173.057,94.7c.551-1.727-1.443-3.637-2.995-2.336a77.883,77.883,0,0,1-11.72,8.684c-3.353,1.9-7.015,3.111-10.46,4.78-.025-.058-.025-.125-.05-.184a2.836,2.836,0,0,0,.375-.392c7.916-10.1,14.264-22,19.853-33.525a193.7,193.7,0,0,0,11.695-29.154c.626,2.644,1.61,5.264,2.327,7.549,2.077,6.573,4.4,13.046,6.832,19.494,2.4,6.39,4.888,12.746,7.266,19.144,1.735,4.646,3.3,9.635,5.347,14.281a19.418,19.418,0,0,1-3.612-1.51,41.021,41.021,0,0,1-8.417-7.382c-1.927-2.069-4.129-.534-3.854,1.668,1.134,9.151,3.929,25.684,12.437,39.564.025.033.042.075.075.125.242.4.726,1.276,1.31,2.319q1.426-2.14,2.845-4.288c-.033-.075-.075-.15-.108-.225-.359-.726-.717-1.451-1.059-2.177-1.476-3.1-2.844-6.248-4.079-9.459-2.169-5.647-6.173-16.183-7.491-22.005,6.665,6.982,18.1,9.893,17.659,7.666M28.138,194.419c-7.349.392-15.14-.5-22.531.167a300.128,300.128,0,0,0,38.563-69.369c.609-1.568-1.793-4.121-3.253-2.711a127.4,127.4,0,0,1-27.753,19.828c12.5-20.8,26.151-41.475,33.433-64.731.534-1.718-1.835-3.629-3.145-2.077C40.2,79.4,35.195,82.867,30.44,85.569a27.67,27.67,0,0,0,2.236-3.9q1.752-4.029,3.27-8.166c2.019-5.514,3.762-11.136,5.272-16.808a170,170,0,0,0,5.205-26.176c.292.709.584,1.41.851,2.094a99.442,99.442,0,0,0,6.173,12.771A105.414,105.414,0,0,0,61.388,57.4c2.311,3.028,5.347,5.881,7.532,9.117a36.757,36.757,0,0,1-11.353-3.011c-1.5-.676-4.221.033-3.27,2.211,3.22,7.357,6.365,14.773,9.885,22.005,2.8,5.747,5.923,12.179,10.861,16.441-4.713,5.781-9.418,11.57-13.981,17.467-.843,1.084-.45,4.229,1.51,3.662,7.232-2.11,14.431-4.029,21.463-6.782.192-.075.375-.159.567-.234a13.862,13.862,0,0,0,2.594,2.995,16.872,16.872,0,0,0,3.579,2.786c-2.744-.033-5.689.517-8.275.425-4.379-.15-8.625-.576-12.988-.409-.726-.325-1.777-.092-1.835.784-.392,5.731,3.42,11.954,6.632,16.441a29.055,29.055,0,0,0,3.4,4.129c-5.631,7.816-11.511,15.465-17.567,23.006-.943,1.185-.434,4.179,1.552,3.754,9.977-2.152,20.329-2.828,30.605-3.228a9.066,9.066,0,0,0,1.31,2.019,49.988,49.988,0,0,0,3.879,3.637c1.485,1.326,3.061,2.553,4.613,3.8-7.316,2.261-14.414,5.464-21.805,7.557a225.924,225.924,0,0,1-25.834,5.739,244.34,244.34,0,0,1-26.326,2.711M88.657,116.55c3.845-1.727,7.574-3.654,11.295-5.639-1.86,3.312-3.8,6.573-5.764,9.81a8.451,8.451,0,0,0-1-.751,38.7,38.7,0,0,1-3.161-2.3c-.3-.25-.792-.684-1.368-1.118m.05,12.879q-3.966,6.094-8.175,12.029a66.886,66.886,0,0,1-5.4-8.033c-1.118-1.96-2.06-4-3.161-5.956a59.449,59.449,0,0,0,13.188,1.869c1.093.042,2.319.117,3.545.092M54.639,203.512c.033.392.067.876.133,1.376a41.38,41.38,0,0,0-9.059,3.6c.075-3.2-.184-6.34-.417-9.509q4.717-.576,9.4-1.343c.058-.008.125-.025.184-.033a23.661,23.661,0,0,0-.242,5.906m27.3-1.977c-1.935,1.51-3.887,2.995-5.839,4.488l-.083-.083c-4.137-3.228-11.4-2.694-16.358-2.027a23.158,23.158,0,0,0-.45-7.074,226.124,226.124,0,0,0,22.164-5.214c7.608-2.211,16.191-4.463,23.365-8.183a10.326,10.326,0,0,0,.167,2.277c-8.7,3.12-15.866,10.26-22.965,15.816m23.482-26.026c-1.109-1.2-2.177-2.444-3.345-3.587-1.1-1.093-2.261-2.144-3.412-3.195,1.585-.05,3.161-.1,4.73-.158.976-.033,1.935-.058,2.9-.083a56.294,56.294,0,0,0-.876,7.024m12.462.918a45.133,45.133,0,0,0,.5,7.749,35.662,35.662,0,0,0-8.225.2c-.192.025-.375.075-.567.108a46.036,46.036,0,0,0,.7-6.281,54.121,54.121,0,0,0,.375-9.851q3.9-.113,7.808-.2a28.891,28.891,0,0,0-.592,8.275m47.973-34.7c-.734,1.718-1.485,3.437-2.252,5.138-.876,1.927-1.944,3.837-2.819,5.814-1.827-2.578-3.011-4.379-4.755-7.015,3.779-.7,6.557-2.486,9.826-3.937m-.559,22.714c-12-1.527-57.541-3.253-97.722,1.81a2.507,2.507,0,0,0-.767.184c4.922-6.356,9.835-12.854,14.581-19.511a2.529,2.529,0,0,0,1.126-1.368,1.379,1.379,0,0,0,.108-.392c4.046-5.739,7.95-11.587,11.595-17.576a4.518,4.518,0,0,0,.9-1.385.663.663,0,0,0,.05-.184,199.6,199.6,0,0,0,10.777-20.4c.567-1.243-.075-2.711-1.785-1.627a129.881,129.881,0,0,1-35.794,15.44c8.417-9.61,16.266-19.836,23.932-29.988s15.315-21.747,17.859-34.384c.734-4.53-.475-3.512-2.311-2.2-5.205,3.712-7.6,7.341-17.309,11.67,5.631-8.058,11.52-17.876,15.182-27.044,2.361-5.914,4.388-11.912,6.2-18.018.876-2.97,2.027-6.131,2.719-9.318a86.556,86.556,0,0,0,8.65,21.922c3.72,6.924,11.37,15.449,16.925,21.3-6.073-1.577-15.015-5.656-19.736-9.393-2.085-1.643-3.645-.926-2.97,1.126,6.473,19.87,14.665,42.676,25.2,60.669-4.446-1.1-10.844-4.338-14.773-6.74-2.519-1.543-4.279-.859-2.4,1.768,8.342,11.712,11.687,24.875,18.327,35.944,4.179,6.982,19.92,25.851,21.438,27.694m1.26-63.388c-1.985,5.564-4.012,11.111-6.4,16.516a120.172,120.172,0,0,1-5.581,11.169c-1.418,2.486-3.237,4.846-4.721,7.341q-1.464-2.4-2.87-4.838c-4.329-7.507-7.666-15.941-12.037-23.582a51.266,51.266,0,0,0,10.469,1.593h.042a1.055,1.055,0,0,0,.909.367c6.657-.217,14.206-4.071,20.187-8.567m24.825,31.682c-.993-.759-3.7.242-3.579.968.684,4.087,1.577,8.584,2.728,13.03q1.614-2.4,3.237-4.78c-.008-.042-.025-.083-.033-.125a.543.543,0,0,1,.067.075c.926-1.368,1.86-2.736,2.786-4.1a58.064,58.064,0,0,0-5.205-5.063m5.205,5.063a58.064,58.064,0,0,0-5.205-5.063c-.993-.759-3.7.242-3.579.968.684,4.087,1.577,8.584,2.728,13.03q1.614-2.4,3.237-4.78c-.008-.042-.025-.083-.033-.125a.543.543,0,0,1,.067.075c.926-1.368,1.86-2.736,2.786-4.1m0,0a58.064,58.064,0,0,0-5.205-5.063c-.993-.759-3.7.242-3.579.968.684,4.087,1.577,8.584,2.728,13.03q1.614-2.4,3.237-4.78c-.008-.042-.025-.083-.033-.125a.543.543,0,0,1,.067.075c.926-1.368,1.86-2.736,2.786-4.1m0,0a58.064,58.064,0,0,0-5.205-5.063c-.993-.759-3.7.242-3.579.968.684,4.087,1.577,8.584,2.728,13.03q1.614-2.4,3.237-4.78c-.008-.042-.025-.083-.033-.125a.543.543,0,0,1,.067.075c.926-1.368,1.86-2.736,2.786-4.1m0,0a58.064,58.064,0,0,0-5.205-5.063c-.993-.759-3.7.242-3.579.968.684,4.087,1.577,8.584,2.728,13.03q1.614-2.4,3.237-4.78c-.008-.042-.025-.083-.033-.125a.543.543,0,0,1,.067.075c.926-1.368,1.86-2.736,2.786-4.1m0,0a58.064,58.064,0,0,0-5.205-5.063c-.993-.759-3.7.242-3.579.968.684,4.087,1.577,8.584,2.728,13.03q1.614-2.4,3.237-4.78c-.008-.042-.025-.083-.033-.125a.543.543,0,0,1,.067.075c.926-1.368,1.86-2.736,2.786-4.1m0,0a58.064,58.064,0,0,0-5.205-5.063c-.993-.759-3.7.242-3.579.968.684,4.087,1.577,8.584,2.728,13.03q1.614-2.4,3.237-4.78c-.008-.042-.025-.083-.033-.125a.543.543,0,0,1,.067.075c.926-1.368,1.86-2.736,2.786-4.1m0,0a58.064,58.064,0,0,0-5.205-5.063c-.993-.759-3.7.242-3.579.968.684,4.087,1.577,8.584,2.728,13.03q1.614-2.4,3.237-4.78c-.008-.042-.025-.083-.033-.125a.543.543,0,0,1,.067.075c.926-1.368,1.86-2.736,2.786-4.1m0,0a58.064,58.064,0,0,0-5.205-5.063c-.993-.759-3.7.242-3.579.968.684,4.087,1.577,8.584,2.728,13.03q1.614-2.4,3.237-4.78c-.008-.042-.025-.083-.033-.125a.543.543,0,0,1,.067.075c.926-1.368,1.86-2.736,2.786-4.1m0,0a58.064,58.064,0,0,0-5.205-5.063c-.993-.759-3.7.242-3.579.968.684,4.087,1.577,8.584,2.728,13.03q1.614-2.4,3.237-4.78c-.008-.042-.025-.083-.033-.125a.543.543,0,0,1,.067.075c.926-1.368,1.86-2.736,2.786-4.1m0,0a58.064,58.064,0,0,0-5.205-5.063c-.993-.759-3.7.242-3.579.968.684,4.087,1.577,8.584,2.728,13.03q1.614-2.4,3.237-4.78c-.008-.042-.025-.083-.033-.125a.543.543,0,0,1,.067.075c.926-1.368,1.86-2.736,2.786-4.1m0,0a58.064,58.064,0,0,0-5.205-5.063c-.993-.759-3.7.242-3.579.968.684,4.087,1.577,8.584,2.728,13.03q1.614-2.4,3.237-4.78c-.008-.042-.025-.083-.033-.125a.543.543,0,0,1,.067.075c.926-1.368,1.86-2.736,2.786-4.1m-39.84,70.687a70.936,70.936,0,0,0-4.187,6.123c.217.234.434.475.651.717,1.91-2.452,3.67-5.063,5.414-7.674-.642.259-1.276.542-1.877.834m39.84-70.687a58.064,58.064,0,0,0-5.205-5.063c-.993-.759-3.7.242-3.579.968.684,4.087,1.577,8.584,2.728,13.03q1.614-2.4,3.237-4.78c-.008-.042-.025-.083-.033-.125a.543.543,0,0,1,.067.075c.926-1.368,1.86-2.736,2.786-4.1m12.646,10.319c-.008.192-.025.384-.033.576a2.184,2.184,0,0,0,.033-.576m-40.982,45.02c-.008.3-.017.6-.025.893a1.743,1.743,0,0,1,.184-.167.424.424,0,0,0-.159-.726" transform="translate(0 0)" fill="#fff"/>
        <path id="Path_754" data-name="Path 754" d="M209.686,261.132a15.24,15.24,0,0,1-1.562-2.211c-.193-.337-.787-.171-.672.24.509,1.818,1.788,3.85,3.766,4.223.185.035.235-.2.154-.321-.492-.711-1.13-1.266-1.686-1.931" transform="translate(-34.401 -42.909)" fill="#fff"/>
        <path id="Path_755" data-name="Path 755" d="M213.757,266.469c.158.331.268.677.637.816a.252.252,0,0,0,.313-.154c.148-.363-.059-.714-.192-1.049-.2-.5-1-.114-.758.388" transform="translate(-35.442 -44.087)" fill="#fff"/>
        <path id="Path_756" data-name="Path 756" d="M247.246,159.9c-1.243,1.91-2.461,3.837-3.72,5.739-.759,1.159-1.527,2.311-2.319,3.453a.561.561,0,0,0-.058.092c-.117.158-.234.325-.334.492-.767,1.126-1.518,2.3-2.311,3.437a23.207,23.207,0,0,1-3.153,3.745c-.067.058-.133.125-.2.184a.276.276,0,0,1-.442-.292c.108-.267.225-.534.35-.792a24.278,24.278,0,0,1,2.194-3.7c.843-1.21,1.735-2.386,2.569-3.554.092-.117.175-.242.259-.359.108-.15.217-.309.334-.459.851-1.21,1.727-2.394,2.6-3.579,1.21-1.61,2.427-3.2,3.637-4.8a.358.358,0,0,1,.592.4" transform="translate(-38.92 -26.426)" fill="#fff"/>
        <path id="Path_757" data-name="Path 757" d="M231.685,187.183a.34.34,0,0,1-.05.092,2.365,2.365,0,0,1-.709.7.265.265,0,0,1-.384-.25,2.164,2.164,0,0,1,.225-.876.473.473,0,0,1,.717-.225.422.422,0,0,1,.2.559" transform="translate(-38.232 -30.935)" fill="#fff"/>
        <path id="Path_758" data-name="Path 758" d="M227.319,193.069a.353.353,0,0,0,.04-.7.353.353,0,0,0-.04.7" transform="translate(-37.645 -31.901)" fill="#fff"/>
        <path id="Path_759" data-name="Path 759" d="M221.661,199.689c-1.66,2.786-3.5,5.455-5.305,8.15-.909,1.36-1.768,2.87-2.719,4.279a16.9,16.9,0,0,1-2.344,2.828c-.167.15-.475-.008-.384-.234a14.868,14.868,0,0,1,1.3-2.6c1-1.66,2.236-3.228,3.27-4.8,1.793-2.7,3.545-5.43,5.48-8.05a.412.412,0,0,1,.7.434" transform="translate(-34.974 -33.014)" fill="#fff"/>
        <path id="Path_760" data-name="Path 760" d="M207.645,223.887c-.259.392-.626,1.043-1.143,1.109a.288.288,0,0,1-.342-.217c-.075-.534.392-1.026.709-1.41a.487.487,0,0,1,.651-.133.477.477,0,0,1,.125.651" transform="translate(-34.188 -37.008)" fill="#fff"/>
        <path id="Path_761" data-name="Path 761" d="M201.375,232.251a1.748,1.748,0,0,0-.184.167,6.048,6.048,0,0,0-1.068,1.235,8.248,8.248,0,0,1-.884,1.418.28.28,0,0,1-.459-.15c-.117-1.285,1.1-2.561,2.019-3.32a.415.415,0,0,1,.417-.075.424.424,0,0,1,.158.726" transform="translate(-32.964 -38.391)" fill="#fff"/>
        <path id="Path_762" data-name="Path 762" d="M192.979,241.287c-1.493,2.044-2.92,4.171-4.346,6.306-1.743,2.611-3.5,5.222-5.414,7.674-.617.8-1.26,1.585-1.919,2.352a.2.2,0,0,1-.325-.225c.492-.959,1.026-1.91,1.593-2.844a70.931,70.931,0,0,1,4.188-6.123c1.9-2.536,3.887-5,5.756-7.449.217-.284.684.017.467.309" transform="translate(-30.007 -39.944)" fill="#fff"/>
        <path id="Path_763" data-name="Path 763" d="M178.732,264.136a7.2,7.2,0,0,0-2.417,3.774.2.2,0,0,0,.312.206,11.231,11.231,0,0,0,2.694-3.47c.215-.371-.249-.828-.589-.51" transform="translate(-29.239 -43.786)" fill="#fff"/>
        <path id="Path_764" data-name="Path 764" d="M219.758,164.531c-.008.017-.025.033-.033.05q-1.627,2.377-3.237,4.78c.275,1.076.567,2.152.868,3.22,1.093-1.66,2.186-3.32,3.295-4.98.033-.058.075-.108.108-.167.267-.392.526-.792.792-1.185-.617-.551-1.218-1.126-1.793-1.718m2.786-4.1c-.926,1.368-1.86,2.736-2.786,4.1-.008.017-.025.033-.033.05q-1.627,2.377-3.237,4.78-2.14,3.166-4.254,6.348c-.359.542-.726,1.093-1.084,1.635-1.268,1.91-2.536,3.829-3.787,5.756-1.552,2.386-3.136,4.755-4.73,7.115-.342.509-.684,1.018-1.026,1.535-2.177,3.228-4.371,6.448-6.523,9.7,1.068.058,2.135.117,3.187.15,1.118-1.7,2.236-3.4,3.37-5.088,5.33-7.916,10.477-15.949,15.716-23.932,1.093-1.66,2.186-3.32,3.295-4.98.033-.058.075-.108.108-.167.267-.392.526-.792.792-1.185q1.351-2.015,2.694-4.037c-.559-.592-1.134-1.193-1.7-1.785m1.568-2.286c-.526.759-1.043,1.526-1.568,2.286-.926,1.368-1.86,2.736-2.786,4.1-.008.017-.025.033-.033.05q-1.627,2.377-3.237,4.78-2.14,3.166-4.254,6.348c-.359.542-.726,1.093-1.084,1.635-1.268,1.91-2.536,3.829-3.787,5.756-1.552,2.386-3.136,4.755-4.73,7.115-.342.509-.684,1.018-1.026,1.535-2.177,3.228-4.371,6.448-6.523,9.7,1.068.058,2.135.117,3.187.15,1.118-1.7,2.236-3.4,3.37-5.088,5.33-7.916,10.477-15.949,15.716-23.932,1.093-1.66,2.186-3.32,3.295-4.98.033-.058.075-.108.108-.167.267-.392.526-.792.792-1.185q1.351-2.015,2.694-4.037l1.176-1.752c-.584-1.043-1.068-1.919-1.31-2.319m0,0c-.526.759-1.043,1.526-1.568,2.286-.926,1.368-1.86,2.736-2.786,4.1-.008.017-.025.033-.033.05q-1.627,2.377-3.237,4.78-2.14,3.166-4.254,6.348c-.359.542-.726,1.093-1.084,1.635-1.268,1.91-2.536,3.829-3.787,5.756-1.552,2.386-3.136,4.755-4.73,7.115-.342.509-.684,1.018-1.026,1.535-2.177,3.228-4.371,6.448-6.523,9.7,1.068.058,2.135.117,3.187.15,1.118-1.7,2.236-3.4,3.37-5.088,5.33-7.916,10.477-15.949,15.716-23.932,1.093-1.66,2.186-3.32,3.295-4.98.033-.058.075-.108.108-.167.267-.392.526-.792.792-1.185q1.351-2.015,2.694-4.037l1.176-1.752c-.584-1.043-1.068-1.919-1.31-2.319m0,0c-.526.759-1.043,1.526-1.568,2.286-.926,1.368-1.86,2.736-2.786,4.1-.008.017-.025.033-.033.05q-1.627,2.377-3.237,4.78-2.14,3.166-4.254,6.348c-.359.542-.726,1.093-1.084,1.635-1.268,1.91-2.536,3.829-3.787,5.756-1.552,2.386-3.136,4.755-4.73,7.115-.342.509-.684,1.018-1.026,1.535-2.177,3.228-4.371,6.448-6.523,9.7,1.068.058,2.135.117,3.187.15,1.118-1.7,2.236-3.4,3.37-5.088,5.33-7.916,10.477-15.949,15.716-23.932,1.093-1.66,2.186-3.32,3.295-4.98.033-.058.075-.108.108-.167.267-.392.526-.792.792-1.185q1.351-2.015,2.694-4.037l1.176-1.752c-.584-1.043-1.068-1.919-1.31-2.319m0,0c-.526.759-1.043,1.526-1.568,2.286-.926,1.368-1.86,2.736-2.786,4.1-.008.017-.025.033-.033.05q-1.627,2.377-3.237,4.78-2.14,3.166-4.254,6.348c-.359.542-.726,1.093-1.084,1.635-1.268,1.91-2.536,3.829-3.787,5.756-1.552,2.386-3.136,4.755-4.73,7.115-.342.509-.684,1.018-1.026,1.535-2.177,3.228-4.371,6.448-6.523,9.7,1.068.058,2.135.117,3.187.15,1.118-1.7,2.236-3.4,3.37-5.088,5.33-7.916,10.477-15.949,15.716-23.932,1.093-1.66,2.186-3.32,3.295-4.98.033-.058.075-.108.108-.167.267-.392.526-.792.792-1.185q1.351-2.015,2.694-4.037l1.176-1.752c-.584-1.043-1.068-1.919-1.31-2.319m0,0c-.526.759-1.043,1.526-1.568,2.286-.926,1.368-1.86,2.736-2.786,4.1-.008.017-.025.033-.033.05q-1.627,2.377-3.237,4.78-2.14,3.166-4.254,6.348c-.359.542-.726,1.093-1.084,1.635-1.268,1.91-2.536,3.829-3.787,5.756-1.552,2.386-3.136,4.755-4.73,7.115-.342.509-.684,1.018-1.026,1.535-2.177,3.228-4.371,6.448-6.523,9.7,1.068.058,2.135.117,3.187.15,1.118-1.7,2.236-3.4,3.37-5.088,5.33-7.916,10.477-15.949,15.716-23.932,1.093-1.66,2.186-3.32,3.295-4.98.033-.058.075-.108.108-.167.267-.392.526-.792.792-1.185q1.351-2.015,2.694-4.037l1.176-1.752c-.584-1.043-1.068-1.919-1.31-2.319m0,0c-.526.759-1.043,1.526-1.568,2.286-.926,1.368-1.86,2.736-2.786,4.1-.008.017-.025.033-.033.05q-1.627,2.377-3.237,4.78-2.14,3.166-4.254,6.348c-.359.542-.726,1.093-1.084,1.635-1.268,1.91-2.536,3.829-3.787,5.756-1.552,2.386-3.136,4.755-4.73,7.115-.342.509-.684,1.018-1.026,1.535-2.177,3.228-4.371,6.448-6.523,9.7,1.068.058,2.135.117,3.187.15,1.118-1.7,2.236-3.4,3.37-5.088,5.33-7.916,10.477-15.949,15.716-23.932,1.093-1.66,2.186-3.32,3.295-4.98.033-.058.075-.108.108-.167.267-.392.526-.792.792-1.185q1.351-2.015,2.694-4.037l1.176-1.752c-.584-1.043-1.068-1.919-1.31-2.319m0,0c-.526.759-1.043,1.526-1.568,2.286-.926,1.368-1.86,2.736-2.786,4.1-.008.017-.025.033-.033.05q-1.627,2.377-3.237,4.78-2.14,3.166-4.254,6.348c-.359.542-.726,1.093-1.084,1.635-1.268,1.91-2.536,3.829-3.787,5.756-1.552,2.386-3.136,4.755-4.73,7.115-.342.509-.684,1.018-1.026,1.535-2.177,3.228-4.371,6.448-6.523,9.7,1.068.058,2.135.117,3.187.15,1.118-1.7,2.236-3.4,3.37-5.088,5.33-7.916,10.477-15.949,15.716-23.932,1.093-1.66,2.186-3.32,3.295-4.98.033-.058.075-.108.108-.167.267-.392.526-.792.792-1.185q1.351-2.015,2.694-4.037l1.176-1.752c-.584-1.043-1.068-1.919-1.31-2.319m0,0c-.526.759-1.043,1.526-1.568,2.286-.926,1.368-1.86,2.736-2.786,4.1-.008.017-.025.033-.033.05q-1.627,2.377-3.237,4.78-2.14,3.166-4.254,6.348c-.359.542-.726,1.093-1.084,1.635-1.268,1.91-2.536,3.829-3.787,5.756-1.552,2.386-3.136,4.755-4.73,7.115-.342.509-.684,1.018-1.026,1.535-2.177,3.228-4.371,6.448-6.523,9.7,1.068.058,2.135.117,3.187.15,1.118-1.7,2.236-3.4,3.37-5.088,5.33-7.916,10.477-15.949,15.716-23.932,1.093-1.66,2.186-3.32,3.295-4.98.033-.058.075-.108.108-.167.267-.392.526-.792.792-1.185q1.351-2.015,2.694-4.037l1.176-1.752c-.584-1.043-1.068-1.919-1.31-2.319m0,0c-.526.759-1.043,1.526-1.568,2.286-.926,1.368-1.86,2.736-2.786,4.1-.008.017-.025.033-.033.05q-1.627,2.377-3.237,4.78-2.14,3.166-4.254,6.348c-.359.542-.726,1.093-1.084,1.635-1.268,1.91-2.536,3.829-3.787,5.756-1.552,2.386-3.136,4.755-4.73,7.115-.342.509-.684,1.018-1.026,1.535-2.177,3.228-4.371,6.448-6.523,9.7,1.068.058,2.135.117,3.187.15,1.118-1.7,2.236-3.4,3.37-5.088,5.33-7.916,10.477-15.949,15.716-23.932,1.093-1.66,2.186-3.32,3.295-4.98.033-.058.075-.108.108-.167.267-.392.526-.792.792-1.185q1.351-2.015,2.694-4.037l1.176-1.752c-.584-1.043-1.068-1.919-1.31-2.319m0,0c-.526.759-1.043,1.526-1.568,2.286-.926,1.368-1.86,2.736-2.786,4.1-.008.017-.025.033-.033.05q-1.627,2.377-3.237,4.78-2.14,3.166-4.254,6.348c-.359.542-.726,1.093-1.084,1.635-1.268,1.91-2.536,3.829-3.787,5.756-1.552,2.386-3.136,4.755-4.73,7.115-.342.509-.684,1.018-1.026,1.535-2.177,3.228-4.371,6.448-6.523,9.7,1.068.058,2.135.117,3.187.15,1.118-1.7,2.236-3.4,3.37-5.088,5.33-7.916,10.477-15.949,15.716-23.932,1.093-1.66,2.186-3.32,3.295-4.98.033-.058.075-.108.108-.167.267-.392.526-.792.792-1.185q1.351-2.015,2.694-4.037l1.176-1.752c-.584-1.043-1.068-1.919-1.31-2.319m0,0c-.526.759-1.043,1.526-1.568,2.286-.926,1.368-1.86,2.736-2.786,4.1-.008.017-.025.033-.033.05q-1.627,2.377-3.237,4.78-2.14,3.166-4.254,6.348c-.359.542-.726,1.093-1.084,1.635-1.268,1.91-2.536,3.829-3.787,5.756-1.552,2.386-3.136,4.755-4.73,7.115-.342.509-.684,1.018-1.026,1.535-2.177,3.228-4.371,6.448-6.523,9.7,1.068.058,2.135.117,3.187.15,1.118-1.7,2.236-3.4,3.37-5.088,5.33-7.916,10.477-15.949,15.716-23.932,1.093-1.66,2.186-3.32,3.295-4.98.033-.058.075-.108.108-.167.267-.392.526-.792.792-1.185q1.351-2.015,2.694-4.037l1.176-1.752c-.584-1.043-1.068-1.919-1.31-2.319m0,0c-.526.759-1.043,1.526-1.568,2.286-.926,1.368-1.86,2.736-2.786,4.1-.008.017-.025.033-.033.05q-1.627,2.377-3.237,4.78-2.14,3.166-4.254,6.348c-.359.542-.726,1.093-1.084,1.635-1.268,1.91-2.536,3.829-3.787,5.756-1.552,2.386-3.136,4.755-4.73,7.115-.342.509-.684,1.018-1.026,1.535-2.177,3.228-4.371,6.448-6.523,9.7,1.068.058,2.135.117,3.187.15,1.118-1.7,2.236-3.4,3.37-5.088,5.33-7.916,10.477-15.949,15.716-23.932,1.093-1.66,2.186-3.32,3.295-4.98.033-.058.075-.108.108-.167.267-.392.526-.792.792-1.185q1.351-2.015,2.694-4.037l1.176-1.752c-.584-1.043-1.068-1.919-1.31-2.319m84.05,90.44a.828.828,0,0,0-.184.534.93.93,0,0,0-.208,1.185,14.131,14.131,0,0,0,1.426,1.66,25.547,25.547,0,0,0-1.235,3.22c-.25.592-.551,1.234-.792,1.894-3.729-7.608-8.492-16.508-12.4-23.482-2.3-4.1-4.4-8.325-6.423-12.562-1.952-4.079-4.213-7.95-6.3-11.954-8.258-15.807-16.5-31.648-24.916-47.38-4.68-8.742-9.843-17.351-16.366-24.858a1.416,1.416,0,0,0-1.635-.217.6.6,0,0,0-.842.475c-.042.142-.067.292-.108.442-.025.033-.058.067-.092.108q-5.468,8.083-10.986,16.124c-1,1.46-1.994,2.911-2.986,4.371-.526.759-1.043,1.526-1.568,2.286-.926,1.368-1.86,2.736-2.786,4.1-.008.017-.025.033-.033.05q-1.627,2.377-3.237,4.78-2.14,3.166-4.254,6.348c-.359.542-.726,1.093-1.084,1.635-1.268,1.91-2.536,3.829-3.787,5.756-1.552,2.386-3.136,4.755-4.73,7.115-.342.509-.684,1.018-1.026,1.535-2.177,3.228-4.371,6.448-6.523,9.7q-1.564,2.352-3.1,4.73c-.375.584-.751,1.168-1.118,1.752-4.338,6.748-8.575,13.58-13.221,20.12-.133.2-.275.392-.417.592-.968,1.351-1.927,2.711-2.853,4.087-1.9,2.753-3.737,5.539-5.556,8.35-1.843,2.844-4.021,5.514-5.581,8.517a16.863,16.863,0,0,0-.676-3.053c-.309-.909-.534-1.994-.9-2.97a8.54,8.54,0,0,0,2.336-1.46,1.354,1.354,0,0,0,.117-1.618c-1.435-1.894-3.912-3.537-6.131-1.677a4.226,4.226,0,0,0-1.4,2.761c-.117.909-.184,2.244.742,2.736a.474.474,0,0,0,.5-.058.587.587,0,0,0,.634.267c.334-.067.667-.142.993-.225.192.6.475,1.193.709,1.76a52.625,52.625,0,0,1,1.785,5.372c-1.476.133-.384,2.127.576,2.3,9.268,1.685,19.094,1.685,28.487,2.052,9.309.375,18.61.9,27.911,1.393,18.944,1,37.871,2.261,56.815,3.27,10.494.551,21,1.235,31.506.884.325-.008,1.543-.926,1.335-1.368-.125-.259-.259-.526-.384-.792.6-1.368,1.084-2.853,1.668-4.229a11.124,11.124,0,0,0,.7-1.927c.008.008.017.008.025.017a1.847,1.847,0,0,0,2.853-.984c.976-2.961-2.978-5.964-5.272-3.47M193.5,252.768c-9.192-.667-18.71-1.785-27.986-1.51,1.91-4.254,5.322-8.116,7.824-11.962.976-1.493,1.977-2.97,2.986-4.438,1.084-1.577,2.186-3.145,3.278-4.721,1.076-1.543,2.144-3.086,3.2-4.646,3.871-5.731,7.566-11.57,11.286-17.4q2.077-3.253,4.179-6.49c1.118-1.7,2.236-3.4,3.37-5.088,5.33-7.916,10.477-15.949,15.716-23.932,1.093-1.66,2.186-3.32,3.295-4.98.033-.058.075-.108.108-.167.267-.392.526-.792.792-1.185q1.351-2.015,2.694-4.037l1.176-1.752q1.426-2.14,2.844-4.288c3.195-4.821,6.34-9.685,9.326-14.64-.108,1.376-.159,2.761-.267,4.112-.234,2.911-.475,5.831-.734,8.742-.484,5.447-1.009,10.894-1.4,16.358-.008.192-.025.384-.033.576-.033.375-.058.759-.083,1.134a164.664,164.664,0,0,0-.392,16.733c.083,2.486.275,4.963.275,7.449a42.17,42.17,0,0,1-.642,5.214c-.033.267-.067.542-.083.817-.484.6-.976,1.2-1.468,1.793a79.8,79.8,0,0,1-5.939,6.64c-3.328,3.245-6.882,6.323-10.4,9.359-2.094,1.81-4.271,3.537-6.49,5.23-2.369,1.8-4.788,3.554-7.182,5.289a.008.008,0,0,0-.008.008,58.3,58.3,0,0,1-6.315,4.137,9.937,9.937,0,0,0-3.5,2.494.118.118,0,0,1-.05-.017.577.577,0,0,0-.709.342c-.509,1.894,1.351,3.72,2.444,5.138a42.482,42.482,0,0,0,3.946,4.538,32.237,32.237,0,0,0,7.7,6c-4.254-.259-8.517-.542-12.763-.851M240.7,228.294q-.751.425-1.476.876c-.342-.334-.684-.659-1.026-.993.434-.35.851-.7,1.251-1.068.417.4.834.792,1.251,1.185m-.309-2.069c.05-.042.092-.092.142-.133.042.133.083.267.117.4-.083-.083-.167-.175-.259-.267m-2.244,24.391c-.626.392-1.251.792-1.868,1.185-.726-.559-1.46-1.118-2.186-1.685.425-.275.859-.542,1.285-.817.184-.117.367-.225.551-.342.742.55,1.476,1.109,2.219,1.66m-3.278-2.452c-.325.209-.659.417-.984.626-.284.167-.567.342-.842.517-.267-.208-.526-.409-.784-.609-.292-.234-.609-.475-.926-.726.434-.25.859-.5,1.293-.751a2,2,0,0,1,.184-.1c.125-.075.242-.142.367-.217.167.125.342.25.509.375.234.175.475.35.717.534.159.117.309.234.467.35m-8.325-15.908q.7.663,1.426,1.326c-.626.442-1.26.884-1.885,1.326-.517-.4-1.051-.792-1.585-1.168.684-.492,1.36-.993,2.044-1.485m-2.027-.042.225-.45c.142-.284.292-.567.434-.859.142.15.292.3.442.45-.367.284-.734.576-1.1.859m7.5-12.246c.434.475.884.926,1.351,1.376-.35.3-.7.6-1.051.884l-.142.117c-.484-.425-.993-.834-1.5-1.218.442-.392.893-.776,1.343-1.159m-1.31-.25c.125-.284.259-.576.384-.859l.225.3c-.209.184-.409.375-.609.559m5.03-12.062c.025.342.067.684.108,1.018-.192.184-.375.367-.551.559-.108-.133-.209-.275-.317-.409q.175-.7.3-1.4a1.429,1.429,0,0,0,.117-.092c.117.108.225.217.342.325m-.25-2.144c.008-.2.008-.4.008-.592.042-.017.092-.033.142-.058-.008.175,0,.342,0,.517-.042.05-.092.1-.133.142a.029.029,0,0,1-.017-.008m14.231,45.454c-.434-.392-.868-.776-1.3-1.168.45-.292.9-.592,1.343-.893a.416.416,0,0,0,.067.058c.275.459.559.918.842,1.376q-.488.288-.951.626m-2.277-2.044c-.509-.45-1.009-.9-1.518-1.343.475-.309.951-.617,1.418-.934L248.9,248.1l-1.451.826m-.834.484c-.509.3-1.009.6-1.51.909-.509-.409-1.018-.826-1.527-1.235.509-.317,1.018-.642,1.518-.968.509.434,1.009.868,1.518,1.293m-4.313-1.351c-.7-.567-1.41-1.134-2.11-1.7q.813-.513,1.627-1.051c.692.592,1.385,1.193,2.085,1.785-.534.317-1.068.642-1.6.968m-18.986-6.089c.542-.392,1.084-.792,1.627-1.193.5.392,1,.776,1.5,1.16-.5.35-1.009.709-1.51,1.051l-.092.067c-.509-.367-1.026-.726-1.535-1.076a.008.008,0,0,0,.008-.008m4.346-.893c-.025.017-.05.042-.075.058-.517-.392-1.043-.776-1.56-1.159.609-.442,1.21-.893,1.818-1.335a1.186,1.186,0,0,1,.125-.092c.517.409,1.026.809,1.552,1.21-.617.45-1.235.884-1.86,1.318m2.828-.584c.576.442,1.151.876,1.735,1.31-.684.434-1.368.868-2.044,1.3l-1.677-1.276c.651-.45,1.318-.893,1.985-1.335m-5.43-1.218c-.459-.325-.926-.659-1.393-.984.742-.484,1.485-.968,2.219-1.468.384.334.784.659,1.176.976l-2,1.476m-1.4,4.613c-.659.459-1.318.918-1.969,1.385-.467-.359-.934-.709-1.4-1.059.651-.484,1.3-.959,1.944-1.443.459.375.934.751,1.426,1.118m-1.051,4.021-1.652,1.051c-.467-.359-.934-.717-1.4-1.068.551-.367,1.1-.742,1.652-1.118.467.384.934.759,1.4,1.134m-.092-2.019c.667-.45,1.335-.909,2-1.36.526.392,1.059.776,1.593,1.151-.709.45-1.41.893-2.119,1.343-.492-.375-.984-.759-1.476-1.134m3.22-2.194c.067-.042.125-.083.192-.125.467-.317.943-.634,1.41-.959.551.417,1.109.826,1.668,1.235-.409.267-.817.517-1.218.776-.008,0-.008.008-.017.008-.133.092-.275.175-.417.267-.534-.4-1.076-.8-1.618-1.2m3.353,1.627c.075-.05.15-.092.225-.142.267-.167.542-.334.818-.5.667.484,1.335.968,1.994,1.451-.209.125-.417.259-.634.375-.117.075-.234.142-.35.209-.267.159-.542.309-.809.467-.609-.475-1.235-.959-1.885-1.46.217-.133.425-.267.642-.4m2.211-1.36c.7-.425,1.41-.842,2.119-1.26.659.492,1.318.993,1.969,1.485l-2.127,1.276c-.651-.5-1.31-1-1.96-1.5m4.171-2.469c.367-.217.734-.434,1.109-.651.609.509,1.218,1.018,1.818,1.535-.075.05-.159.092-.234.142-.526.309-1.043.634-1.568.943-.634-.509-1.26-1.009-1.885-1.518.25-.15.509-.3.759-.451m-1.285-12.479c-.475-.442-.951-.893-1.435-1.326.517-.384,1.043-.759,1.577-1.143.484.434.968.876,1.435,1.31-.526.384-1.051.767-1.577,1.159m.792,2.995c-.334.234-.667.475-1,.709-.3-.275-.609-.542-.909-.818.334-.225.667-.45.993-.676.309.267.617.526.918.784m-3.353-5.314c-.425-.359-.851-.709-1.285-1.051.551-.417,1.1-.843,1.652-1.26l1.176,1.1c-.517.409-1.034.817-1.543,1.21m-.309,2.052c.475.45.959.9,1.451,1.343-.317.234-.634.475-.951.717-.509-.442-1.026-.868-1.543-1.293.35-.259.7-.509,1.043-.767m1.543,4.788c-.475.342-.951.692-1.426,1.043-.334-.292-.659-.592-.993-.884.484-.334.968-.667,1.46-1,.325.284.642.559.959.842m-2.152-1.9c-.3.217-.592.434-.893.642-.184.142-.375.275-.567.409-.509-.434-1.026-.859-1.543-1.276.509-.367,1.018-.751,1.526-1.126l1.476,1.351m-.526,3.879c-.592.434-1.176.868-1.768,1.3-.367-.317-.742-.626-1.118-.934.609-.425,1.218-.851,1.835-1.276.342.3.692.609,1.051.909m.943.8c.484.409.968.817,1.46,1.218-.584.434-1.176.859-1.76,1.285-.5-.4-1-.817-1.5-1.243.6-.417,1.2-.842,1.8-1.26m1.276-.876c.492-.334.984-.676,1.485-1.018.45.392.909.784,1.36,1.185-.492.35-.993.717-1.485,1.076-.459-.417-.909-.826-1.36-1.243m2.6-1.785c.35-.242.692-.484,1.043-.726.459.384.9.776,1.343,1.159-.359.25-.726.509-1.084.767l-1.3-1.2m1.41,2.961c.551.484,1.1.968,1.643,1.451-.542.359-1.084.717-1.627,1.068-.534-.492-1.068-.976-1.6-1.468.534-.35,1.059-.7,1.585-1.051m.05,8.417c.25.2.509.392.759.592.225.184.45.367.684.551-.659.434-1.31.868-1.96,1.3-.234-.184-.475-.35-.717-.534-.3-.225-.609-.45-.909-.684.709-.409,1.426-.817,2.144-1.226m1.218-.692c.6-.342,1.193-.692,1.793-1.043.409.35.817.709,1.235,1.059-.567.35-1.126.709-1.677,1.068-.075-.058-.15-.117-.217-.175-.384-.3-.759-.609-1.134-.909m3.962-.551c-.042-.042-.092-.075-.133-.117-.359-.317-.709-.634-1.076-.951.542-.325,1.084-.651,1.618-.984.409.375.817.751,1.218,1.126-.517.275-1.026.567-1.543.876-.025.017-.058.033-.083.05m-1.36-5.239c.425-.284.859-.559,1.276-.843.676.576,1.36,1.143,2.044,1.71-.5.267-1,.542-1.493.817-.609-.559-1.218-1.126-1.827-1.685m.784,2.277c-.559.317-1.118.642-1.677.968-.025-.017-.05-.042-.075-.058-.567-.5-1.126-1.009-1.693-1.518.559-.342,1.118-.684,1.668-1.034.042.033.083.075.125.108.551.509,1.1,1.026,1.652,1.535m-2.019-3.42c-.534-.492-1.068-.984-1.6-1.485.384-.259.767-.526,1.143-.784.559.492,1.118.984,1.685,1.468l-1.226.8m-.884-4.655c-.267-.25-.542-.5-.809-.751.542-.384,1.076-.776,1.61-1.168.467.425.934.859,1.4,1.293-.567.35-1.126.717-1.677,1.084-.175-.15-.35-.309-.526-.459m-1.818-1.693c-.292-.267-.576-.542-.868-.818.542-.384,1.068-.776,1.593-1.168l.951.876c-.567.367-1.126.734-1.677,1.109m.651-4.062c-.467-.442-.926-.909-1.393-1.376.425-.317.859-.634,1.285-.959.5.476,1,.959,1.5,1.435-.467.292-.934.592-1.393.9m-2.553-2.527c-.375-.367-.751-.726-1.126-1.093a.018.018,0,0,0,.017-.017c.4-.3.809-.6,1.226-.909.375.35.751.692,1.1,1.043.008.008.017.017.025.017-.417.317-.834.634-1.243.959m.234-4.229c-.434-.459-.884-.909-1.351-1.335.284-.234.567-.475.859-.709.2-.158.417-.317.634-.475.2.184.4.367.584.542.267.267.517.542.776.8q-.763.563-1.5,1.176m.234-4.137c-.317-.342-.642-.684-.984-1.009.359-.284.717-.567,1.084-.851h.008a.008.008,0,0,1,.008.008c.334.309.651.634.984.959-.375.284-.742.592-1.1.893m-1.852-1.785a.114.114,0,0,1-.033-.025c.184-.434.367-.884.551-1.335q.238.225.475.425c-.342.309-.667.617-.993.934m2.135-3.27c.209.242.409.492.609.742-.234.2-.459.4-.684.6-.192-.225-.392-.45-.609-.667.225-.234.459-.459.684-.676m-1.268,5.889c-.075.067-.15.133-.225.192-.417.342-.809.7-1.218,1.043-.275-.217-.551-.417-.834-.609.108-.259.225-.509.325-.767.025-.067.058-.142.083-.209.259-.209.5-.425.759-.626.359.334.734.659,1.109.976m-2.953,6.415-1.752,1.451c-.192-.142-.384-.292-.584-.425a.394.394,0,0,0-.125-.05c.375-.742.734-1.485,1.093-2.236.05-.042.092-.075.133-.117.392.467.8.934,1.235,1.376m-1.81,3.186q.538.613,1.126,1.2c-.384.284-.759.576-1.134.868-.45-.35-.9-.692-1.368-1.034.459-.342.918-.692,1.376-1.034m-1.577-.375c.158-.309.317-.617.467-.934.092.108.184.217.267.325-.242.2-.484.409-.734.609m.634,3.17c-.526.417-1.059.817-1.585,1.235-.309-.242-.626-.467-.934-.692.2-.392.4-.784.592-1.168l.726-.551c.4.392.8.792,1.2,1.176m3.6,10.294c.609-.4,1.218-.8,1.835-1.2.567.467,1.126.934,1.693,1.393-.509.325-1.018.642-1.518.968-.108.067-.209.133-.317.2-.384-.309-.759-.609-1.134-.909-.192-.15-.375-.3-.559-.45m-7.032-3.787c-.776.551-1.543,1.1-2.311,1.652-.167-.108-.325-.217-.484-.325a.28.28,0,0,0-.117-.042c.467-.809.918-1.627,1.368-2.452.017-.017.042-.025.058-.042.042-.033.075-.058.108-.083.175.167.359.342.534.5.275.275.559.534.842.792m-2.119,3.095c.45.375.893.742,1.351,1.109-.567.425-1.134.859-1.693,1.285-.008-.008-.025-.017-.033-.025-.592-.384-1.159-.742-1.718-1.059l.075-.05c.676-.417,1.351-.834,2.019-1.26m-1.618-.4c.125-.225.259-.442.384-.659.083.067.158.133.234.2-.209.15-.409.309-.617.459m-1.385,2.261c.083-.05.167-.108.259-.158a19.529,19.529,0,0,0,1.451,1.41c-.651.509-1.31,1.009-1.96,1.518-.342-.25-.684-.5-1.026-.759.434-.667.859-1.335,1.276-2.01m-.534,4.271c.425.367.867.726,1.3,1.084-.551.392-1.109.776-1.66,1.168-.45-.334-.9-.659-1.351-.984.567-.417,1.134-.842,1.71-1.268m-2.511.7c-.042-.033-.092-.067-.133-.1.409-.6.809-1.21,1.21-1.81l.651.551c-.576.451-1.151.9-1.727,1.36m1.084,2.311c-.475.342-.951.676-1.418,1.018-.4-.359-.809-.7-1.226-1.009.467-.342.934-.692,1.41-1.043.409.35.818.692,1.235,1.034m-2.544,1.819c-.4.284-.8.559-1.2.842-.167-.15-.334-.292-.509-.425.3-.442.584-.893.867-1.326.267.309.542.617.843.909m.584.542c.417.375.842.742,1.268,1.093-.442.3-.893.6-1.343.9l-.309-.309c-.284-.275-.567-.567-.851-.859.409-.275.826-.551,1.235-.826m1.159-.776c.5-.334,1.009-.667,1.51-1.009q.663.538,1.351,1.076c-.559.359-1.109.726-1.66,1.084-.4-.375-.8-.767-1.2-1.151m3.9.876c.526.4,1.043.8,1.577,1.193-.642.375-1.268.767-1.894,1.16-.492-.409-.993-.826-1.476-1.251.6-.367,1.2-.734,1.793-1.1m1.2-.751c.551-.342,1.109-.692,1.66-1.043.551.434,1.1.851,1.652,1.268-.584.342-1.176.676-1.76,1.018-.517-.417-1.034-.834-1.552-1.243m3.061-1.927,2.177-1.376c.667.467,1.31.926,1.91,1.368-.792.45-1.585.893-2.386,1.343-.567-.442-1.134-.893-1.7-1.335m5.138.776c.175.142.35.275.517.409.392.317.792.634,1.185.951-.784.484-1.577.959-2.361,1.435-.567-.467-1.143-.926-1.727-1.393.8-.467,1.593-.934,2.386-1.4m6.84-.359c.659-.4,1.318-.8,1.985-1.2.7.567,1.4,1.126,2.1,1.693-.551.342-1.109.676-1.66,1.026-.058.033-.117.075-.175.108-.15-.108-.292-.217-.442-.317-.6-.442-1.21-.876-1.81-1.31m4.413,2.119c.325-.2.651-.4.968-.592.492.392.976.767,1.46,1.16.025.017.05.042.075.058-.559.35-1.118.7-1.677,1.059-.542-.4-1.093-.8-1.643-1.2.275-.167.542-.325.817-.484m3.612,1.5c.551.434,1.109.868,1.66,1.3-.526.367-1.068.717-1.61,1.076-.576-.459-1.151-.918-1.743-1.368.567-.334,1.134-.667,1.693-1.009m1.193-.634c-.025-.017-.042-.033-.067-.05.484-.3.976-.609,1.46-.918.392.334.784.667,1.176.993.067.067.142.125.209.184-.442.334-.884.676-1.318,1.009-.484-.409-.976-.817-1.46-1.218m3.845,1.109,1.134.959c-.317.25-.634.509-.943.751-.117.092-.225.184-.342.275-.409-.35-.826-.692-1.235-1.043.459-.309.926-.617,1.385-.943m.642-.484c.2-.158.4-.317.592-.484.175.267.342.542.517.809.092.142.192.292.284.45-.1.067-.2.133-.3.209-.359-.325-.726-.659-1.093-.984m-4.454-6.215c-.5.292-1.009.592-1.51.893-.7-.617-1.4-1.243-2.11-1.86.2-.142.4-.284.592-.425.284-.209.567-.425.842-.642.559.517,1.118,1.043,1.677,1.568.167.15.342.309.509.467m.934-.542c-.751-.734-1.51-1.468-2.269-2.194.334-.284.659-.576.968-.876a.206.206,0,0,0-.234-.334c-.459.184-.909.384-1.368.6-.425-.4-.842-.809-1.276-1.218.492-.309.976-.626,1.46-.951.392.317.784.634,1.185.943q.863,1.952,1.86,3.845c-.108.058-.217.117-.325.184m-4.471-8.283c.317-.225.626-.467.934-.7.284.784.576,1.568.884,2.344-.6-.551-1.21-1.093-1.819-1.643m-1.193-1.059c-.576-.517-1.143-1.026-1.718-1.535.526-.384,1.051-.767,1.568-1.159.584.542,1.176,1.076,1.76,1.618a1.021,1.021,0,0,1,.042.117c-.551.309-1.109.626-1.652.959m-.05-4.388c-.475-.467-.959-.934-1.443-1.4.442-.334.884-.676,1.318-1.026l.526,1.777c.033.125.067.242.108.359-.167.1-.342.192-.509.292m-1.927-6.014c-.517-.551-1.043-1.093-1.568-1.635.475-.4.926-.809,1.368-1.235.05.05.092.1.142.15.234.784.467,1.577.692,2.361-.217.117-.425.242-.634.359m-1.034-3.812c-.551.325-1.1.667-1.635,1.043-.042-.05-.083-.092-.125-.133-.309-.325-.626-.659-.943-1,.509-.384,1.018-.792,1.493-1.21.409.434.809.868,1.21,1.3m-.425-2.027c.125-.125.242-.25.359-.384.117.4.234.792.35,1.193-.234-.275-.467-.542-.709-.809m-1.034-1.109c-.367-.392-.717-.8-1.093-1.185-.067-.067-.133-.142-.2-.209.4-.275.809-.559,1.21-.851.292.292.576.592.859.893.075.259.15.517.234.776a11.162,11.162,0,0,0-1.009.576m-.133-3.9c-.292-.35-.584-.692-.884-1.034.209-.142.425-.3.634-.45.125.467.25.934.384,1.4-.042.033-.092.05-.133.083m-.9-4.321.025-.025a.244.244,0,0,0,.017.075c-.017-.017-.025-.033-.042-.05m-36.027,35.26c-1.326-1.51-2.569-3.086-3.762-4.713a13.881,13.881,0,0,0-1.818-2.261c1.627-1.051,3.537-1.735,5.172-2.728,2.219-1.343,4.371-2.794,6.473-4.3l.25-.175c1.6-1.134,3.195-2.294,4.771-3.462q4.2-3.091,8.308-6.315c4.2-3.295,9.585-7.115,13.18-11.8-.726,2.394-1.526,4.771-2.286,7.19-1.668,5.314-4.746,9.852-7.6,14.573l-1.2,1.977c-1.034,1.71-2.077,3.42-3.153,5.105-1.293,2.052-2.628,4.087-4.046,6.073-1.2,1.668-2.352,3.37-3.6,5a38.22,38.22,0,0,1-2.7,2.995c-2.678-2.386-5.572-4.413-7.983-7.174m12.921,5.989c-.209.142-.417.292-.617.442.15-.209.3-.409.45-.626.058.067.108.125.167.184m-2.3,2.427c.259-.25.5-.526.734-.8a.294.294,0,0,0,.225.083l.4.35c.175.159.359.317.534.475-.626-.033-1.26-.067-1.894-.108m2.853.033-1.026-.976c-.058-.067-.125-.125-.192-.192.4-.267.8-.542,1.21-.809.392.334.8.659,1.168.976.05.033.092.075.133.108-.434.3-.868.592-1.293.893m1.31.209c.25-.15.509-.3.767-.442.209.175.417.342.626.517l-1.393-.075m3.5.2-.776-.05c-.367-.367-.734-.726-1.1-1.093.5-.3.993-.592,1.485-.893.492.425.993.859,1.493,1.285q-.551.363-1.1.751m1.343.075c.167-.075.334-.15.492-.225.117.092.234.184.359.275l-.851-.05m4.871.267c-.717-.042-1.426-.083-2.144-.117-.342-.325-.7-.642-1.059-.951.709-.359,1.418-.717,2.119-1.093.676.5,1.36.993,2.044,1.493-.325.209-.642.442-.959.667m.067-2.8c.617-.334,1.226-.676,1.835-1.026.617.459,1.235.918,1.852,1.36-.626.392-1.243.784-1.86,1.185-.6-.509-1.21-1.009-1.827-1.518m1.844,2.9c.025-.017.042-.025.067-.042.025.017.042.033.067.05a.721.721,0,0,0-.133-.008m4.988.267-3.253-.175c-.25-.217-.509-.425-.759-.642.684-.392,1.368-.784,2.044-1.193.809.567,1.627,1.126,2.444,1.677-.159.108-.317.217-.475.334m-.8-2.728c.784-.484,1.56-.976,2.336-1.468.717.576,1.435,1.151,2.16,1.718-.784.517-1.568,1.034-2.344,1.552q-1.064-.9-2.152-1.8m6.7,3.028c-1.109-.058-2.211-.108-3.312-.167l-.425-.375c.876-.45,1.743-.918,2.619-1.385.626.475,1.251.943,1.894,1.41-.259.175-.517.35-.776.517m.133-2.619c.676-.375,1.335-.759,2-1.143.559.409,1.126.826,1.7,1.226-.667.434-1.326.868-1.985,1.3-.567-.467-1.143-.926-1.718-1.385m5.689,2.928-2.3-.125c-.267-.234-.534-.475-.809-.7.734-.417,1.477-.834,2.2-1.26q.989.676,1.977,1.326c-.359.242-.717.5-1.068.759m1.927.1.25-.15.3.175-.551-.025m2.945.15-1-.05c-.3-.259-.6-.517-.9-.767.551-.367,1.093-.742,1.627-1.109l1.376,1.051-1.1.876m2.069.108c-.242-.008-.475-.025-.717-.033.184-.117.367-.242.551-.359.184.142.367.275.559.417L250.08,256m.676-.959a.824.824,0,0,0,.142-.092c.4-.275.842-.542,1.276-.834.375.309.742.626,1.109.934-.075.058-.142.117-.217.167-.375.292-.751.576-1.118.859-.4-.342-.792-.684-1.193-1.034m2.277,1.109c.15-.1.292-.2.442-.309s.292-.2.434-.3a.316.316,0,0,0,.125,0,7.1,7.1,0,0,0,.626.692c-.542-.025-1.084-.05-1.627-.083m1.134-4.938a82.735,82.735,0,0,1-4.513-7.407,71.985,71.985,0,0,1-5.505-13.947c-1.326-4.521-2.586-9.034-4.029-13.513a76.805,76.805,0,0,1-2.895-10.777c.159.359.317.709.509,1.051a39.673,39.673,0,0,0,4.037,5.664c3.278,4.062,6.79,7.933,10.394,11.695,3.07,3.2,6.24,6.331,9.6,9.226,2.553,2.194,5.464,4.646,8.675,6.048-2.035,2.527-3.637,5.339-5.772,7.816-2.386,2.761-5.38,4.988-7.933,7.574-.7-1.21-1.785-2.277-2.569-3.428m4.513,5.214a54.941,54.941,0,0,0,6.873-6.924c2.761-3.145,4.738-6.949,8.133-9.509a1.561,1.561,0,0,0-.158-2.536,70.509,70.509,0,0,1-10.36-7.1c-3.5-3.078-6.74-6.465-9.977-9.81-3.353-3.47-6.7-6.99-9.91-10.594a30.269,30.269,0,0,1-4.213-5.6c-.567-1.059-1.1-2.127-1.685-3.161.467-2.853.008-6.381-.05-8.567-.167-6.248.1-12.529.475-18.76.367-6.164.934-12.312,1.451-18.468.392-4.721,1.293-9.977,1.026-14.865,9.226,13.664,16.149,28.553,23.949,43.059,4.229,7.866,8.608,15.666,12.888,23.507,2.252,4.129,4.888,7.95,7.532,11.828s4.479,8.15,6.5,12.371c2.119,4.421,4.513,8.7,6.823,13.03,2.369,4.429,5.147,11.311,8.158,15.632-15.666-2.2-31.615-2.8-47.456-3.537m52.227-6.99a4.936,4.936,0,0,0-.592-.2,2.155,2.155,0,0,1,.884.267,2.3,2.3,0,0,1,.784.659,3.824,3.824,0,0,0-1.076-.726m-86.795-91.3c-.526.759-1.043,1.526-1.568,2.286-.926,1.368-1.86,2.736-2.786,4.1-.008.017-.025.033-.033.05q-1.627,2.377-3.237,4.78-2.14,3.166-4.254,6.348c-.359.542-.726,1.093-1.084,1.635-1.268,1.91-2.536,3.829-3.787,5.756-1.552,2.386-3.136,4.755-4.73,7.115-.342.509-.684,1.018-1.026,1.535-2.177,3.228-4.371,6.448-6.523,9.7,1.068.058,2.135.117,3.187.15,1.118-1.7,2.236-3.4,3.37-5.088,5.33-7.916,10.477-15.949,15.716-23.932,1.093-1.66,2.186-3.32,3.295-4.98.033-.058.075-.108.108-.167.267-.392.526-.792.792-1.185q1.351-2.015,2.694-4.037l1.176-1.752c-.584-1.043-1.068-1.919-1.31-2.319m0,0c-.526.759-1.043,1.526-1.568,2.286-.926,1.368-1.86,2.736-2.786,4.1-.008.017-.025.033-.033.05q-1.627,2.377-3.237,4.78-2.14,3.166-4.254,6.348c-.359.542-.726,1.093-1.084,1.635-1.268,1.91-2.536,3.829-3.787,5.756-1.552,2.386-3.136,4.755-4.73,7.115-.342.509-.684,1.018-1.026,1.535-2.177,3.228-4.371,6.448-6.523,9.7,1.068.058,2.135.117,3.187.15,1.118-1.7,2.236-3.4,3.37-5.088,5.33-7.916,10.477-15.949,15.716-23.932,1.093-1.66,2.186-3.32,3.295-4.98.033-.058.075-.108.108-.167.267-.392.526-.792.792-1.185q1.351-2.015,2.694-4.037l1.176-1.752c-.584-1.043-1.068-1.919-1.31-2.319m0,0c-.526.759-1.043,1.526-1.568,2.286-.926,1.368-1.86,2.736-2.786,4.1-.008.017-.025.033-.033.05q-1.627,2.377-3.237,4.78-2.14,3.166-4.254,6.348c-.359.542-.726,1.093-1.084,1.635-1.268,1.91-2.536,3.829-3.787,5.756-1.552,2.386-3.136,4.755-4.73,7.115-.342.509-.684,1.018-1.026,1.535-2.177,3.228-4.371,6.448-6.523,9.7,1.068.058,2.135.117,3.187.15,1.118-1.7,2.236-3.4,3.37-5.088,5.33-7.916,10.477-15.949,15.716-23.932,1.093-1.66,2.186-3.32,3.295-4.98.033-.058.075-.108.108-.167.267-.392.526-.792.792-1.185q1.351-2.015,2.694-4.037l1.176-1.752c-.584-1.043-1.068-1.919-1.31-2.319m0,0c-.526.759-1.043,1.526-1.568,2.286-.926,1.368-1.86,2.736-2.786,4.1-.008.017-.025.033-.033.05q-1.627,2.377-3.237,4.78-2.14,3.166-4.254,6.348c-.359.542-.726,1.093-1.084,1.635-1.268,1.91-2.536,3.829-3.787,5.756-1.552,2.386-3.136,4.755-4.73,7.115-.342.509-.684,1.018-1.026,1.535-2.177,3.228-4.371,6.448-6.523,9.7,1.068.058,2.135.117,3.187.15,1.118-1.7,2.236-3.4,3.37-5.088,5.33-7.916,10.477-15.949,15.716-23.932,1.093-1.66,2.186-3.32,3.295-4.98.033-.058.075-.108.108-.167.267-.392.526-.792.792-1.185q1.351-2.015,2.694-4.037l1.176-1.752c-.584-1.043-1.068-1.919-1.31-2.319m0,0c-.526.759-1.043,1.526-1.568,2.286-.926,1.368-1.86,2.736-2.786,4.1-.008.017-.025.033-.033.05q-1.627,2.377-3.237,4.78-2.14,3.166-4.254,6.348c-.359.542-.726,1.093-1.084,1.635-1.268,1.91-2.536,3.829-3.787,5.756-1.552,2.386-3.136,4.755-4.73,7.115-.342.509-.684,1.018-1.026,1.535-2.177,3.228-4.371,6.448-6.523,9.7,1.068.058,2.135.117,3.187.15,1.118-1.7,2.236-3.4,3.37-5.088,5.33-7.916,10.477-15.949,15.716-23.932,1.093-1.66,2.186-3.32,3.295-4.98.033-.058.075-.108.108-.167.267-.392.526-.792.792-1.185q1.351-2.015,2.694-4.037l1.176-1.752c-.584-1.043-1.068-1.919-1.31-2.319m0,0c-.526.759-1.043,1.526-1.568,2.286-.926,1.368-1.86,2.736-2.786,4.1-.008.017-.025.033-.033.05q-1.627,2.377-3.237,4.78-2.14,3.166-4.254,6.348c-.359.542-.726,1.093-1.084,1.635-1.268,1.91-2.536,3.829-3.787,5.756-1.552,2.386-3.136,4.755-4.73,7.115-.342.509-.684,1.018-1.026,1.535-2.177,3.228-4.371,6.448-6.523,9.7,1.068.058,2.135.117,3.187.15,1.118-1.7,2.236-3.4,3.37-5.088,5.33-7.916,10.477-15.949,15.716-23.932,1.093-1.66,2.186-3.32,3.295-4.98.033-.058.075-.108.108-.167.267-.392.526-.792.792-1.185q1.351-2.015,2.694-4.037l1.176-1.752c-.584-1.043-1.068-1.919-1.31-2.319m0,0c-.526.759-1.043,1.526-1.568,2.286-.926,1.368-1.86,2.736-2.786,4.1-.008.017-.025.033-.033.05q-1.627,2.377-3.237,4.78-2.14,3.166-4.254,6.348c-.359.542-.726,1.093-1.084,1.635-1.268,1.91-2.536,3.829-3.787,5.756-1.552,2.386-3.136,4.755-4.73,7.115-.342.509-.684,1.018-1.026,1.535-2.177,3.228-4.371,6.448-6.523,9.7,1.068.058,2.135.117,3.187.15,1.118-1.7,2.236-3.4,3.37-5.088,5.33-7.916,10.477-15.949,15.716-23.932,1.093-1.66,2.186-3.32,3.295-4.98.033-.058.075-.108.108-.167.267-.392.526-.792.792-1.185q1.351-2.015,2.694-4.037l1.176-1.752c-.584-1.043-1.068-1.919-1.31-2.319m0,0c-.526.759-1.043,1.526-1.568,2.286-.926,1.368-1.86,2.736-2.786,4.1-.008.017-.025.033-.033.05q-1.627,2.377-3.237,4.78-2.14,3.166-4.254,6.348c-.359.542-.726,1.093-1.084,1.635-1.268,1.91-2.536,3.829-3.787,5.756-1.552,2.386-3.136,4.755-4.73,7.115-.342.509-.684,1.018-1.026,1.535-2.177,3.228-4.371,6.448-6.523,9.7,1.068.058,2.135.117,3.187.15,1.118-1.7,2.236-3.4,3.37-5.088,5.33-7.916,10.477-15.949,15.716-23.932,1.093-1.66,2.186-3.32,3.295-4.98.033-.058.075-.108.108-.167.267-.392.526-.792.792-1.185q1.351-2.015,2.694-4.037l1.176-1.752c-.584-1.043-1.068-1.919-1.31-2.319m0,0c-.526.759-1.043,1.526-1.568,2.286-.926,1.368-1.86,2.736-2.786,4.1-.008.017-.025.033-.033.05q-1.627,2.377-3.237,4.78-2.14,3.166-4.254,6.348c-.359.542-.726,1.093-1.084,1.635-1.268,1.91-2.536,3.829-3.787,5.756-1.552,2.386-3.136,4.755-4.73,7.115-.342.509-.684,1.018-1.026,1.535-2.177,3.228-4.371,6.448-6.523,9.7,1.068.058,2.135.117,3.187.15,1.118-1.7,2.236-3.4,3.37-5.088,5.33-7.916,10.477-15.949,15.716-23.932,1.093-1.66,2.186-3.32,3.295-4.98.033-.058.075-.108.108-.167.267-.392.526-.792.792-1.185q1.351-2.015,2.694-4.037l1.176-1.752c-.584-1.043-1.068-1.919-1.31-2.319m0,0c-.526.759-1.043,1.526-1.568,2.286-.926,1.368-1.86,2.736-2.786,4.1-.008.017-.025.033-.033.05q-1.627,2.377-3.237,4.78-2.14,3.166-4.254,6.348c-.359.542-.726,1.093-1.084,1.635-1.268,1.91-2.536,3.829-3.787,5.756-1.552,2.386-3.136,4.755-4.73,7.115-.342.509-.684,1.018-1.026,1.535-2.177,3.228-4.371,6.448-6.523,9.7,1.068.058,2.135.117,3.187.15,1.118-1.7,2.236-3.4,3.37-5.088,5.33-7.916,10.477-15.949,15.716-23.932,1.093-1.66,2.186-3.32,3.295-4.98.033-.058.075-.108.108-.167.267-.392.526-.792.792-1.185q1.351-2.015,2.694-4.037l1.176-1.752c-.584-1.043-1.068-1.919-1.31-2.319m0,0c-.526.759-1.043,1.526-1.568,2.286-.926,1.368-1.86,2.736-2.786,4.1-.008.017-.025.033-.033.05q-1.627,2.377-3.237,4.78-2.14,3.166-4.254,6.348c-.359.542-.726,1.093-1.084,1.635-1.268,1.91-2.536,3.829-3.787,5.756-1.552,2.386-3.136,4.755-4.73,7.115-.342.509-.684,1.018-1.026,1.535-2.177,3.228-4.371,6.448-6.523,9.7,1.068.058,2.135.117,3.187.15,1.118-1.7,2.236-3.4,3.37-5.088,5.33-7.916,10.477-15.949,15.716-23.932,1.093-1.66,2.186-3.32,3.295-4.98.033-.058.075-.108.108-.167.267-.392.526-.792.792-1.185q1.351-2.015,2.694-4.037l1.176-1.752c-.584-1.043-1.068-1.919-1.31-2.319m0,0c-.526.759-1.043,1.526-1.568,2.286-.926,1.368-1.86,2.736-2.786,4.1-.008.017-.025.033-.033.05q-1.627,2.377-3.237,4.78-2.14,3.166-4.254,6.348c-.359.542-.726,1.093-1.084,1.635-1.268,1.91-2.536,3.829-3.787,5.756-1.552,2.386-3.136,4.755-4.73,7.115-.342.509-.684,1.018-1.026,1.535-2.177,3.228-4.371,6.448-6.523,9.7,1.068.058,2.135.117,3.187.15,1.118-1.7,2.236-3.4,3.37-5.088,5.33-7.916,10.477-15.949,15.716-23.932,1.093-1.66,2.186-3.32,3.295-4.98.033-.058.075-.108.108-.167.267-.392.526-.792.792-1.185q1.351-2.015,2.694-4.037l1.176-1.752c-.584-1.043-1.068-1.919-1.31-2.319m-1.568,2.286c-.926,1.368-1.86,2.736-2.786,4.1-.008.017-.025.033-.033.05q-1.627,2.377-3.237,4.78-2.14,3.166-4.254,6.348c-.359.542-.726,1.093-1.084,1.635-1.268,1.91-2.536,3.829-3.787,5.756-1.552,2.386-3.136,4.755-4.73,7.115-.342.509-.684,1.018-1.026,1.535-2.177,3.228-4.371,6.448-6.523,9.7,1.068.058,2.135.117,3.187.15,1.118-1.7,2.236-3.4,3.37-5.088,5.33-7.916,10.477-15.949,15.716-23.932,1.093-1.66,2.186-3.32,3.295-4.98.033-.058.075-.108.108-.167.267-.392.526-.792.792-1.185q1.351-2.015,2.694-4.037c-.559-.592-1.134-1.193-1.7-1.785" transform="translate(-25.956 -22.63)" fill="#fff"/>
      </g>
    </g>
  </g>
</svg>
