<svg id="Component_25_1" data-name="Component 25 – 1" xmlns="http://www.w3.org/2000/svg" xmlns:xlink="http://www.w3.org/1999/xlink" width="101.878" height="22" viewBox="0 0 101.878 22">
  <defs>
    <clipPath id="clip-path">
      <rect id="Rectangle_359" data-name="Rectangle 359" width="12.878" height="19.548" transform="translate(0 0)" fill="#483729"/>
    </clipPath>
  </defs>
  <text id="Get_Started" data-name="Get Started" transform="translate(0 17)" fill="#483729" font-size="16" font-family="Noto Sans Display" font-weight="500"><tspan x="0" y="0">Get Started</tspan></text>
  <g id="Group_822" data-name="Group 822" transform="translate(89 1)">
    <g id="Group_822-2" data-name="Group 822" transform="translate(0 0)" clip-path="url(#clip-path)">
      <path id="Path_765" data-name="Path 765" d="M13.076,41c-1.922.512-3.913.755-5.853,1.191-.31.07-.77-.4-.35-.555,1.9-.7,3.869-1.006,5.817-1.524,1.7-.453,3.32-1.392,5.121-1.061.136.025.266.23.089.3A39.555,39.555,0,0,1,13.076,41" transform="translate(-5.109 -29.702)" fill="#483729"/>
      <path id="Path_766" data-name="Path 766" d="M4.612,3.732c-1.231,1.357-2.7,2.5-3.87,3.907-.211.253-.927.132-.7-.263a35.479,35.479,0,0,1,3.7-4.5C4.66,1.765,5.838.09,7.408,0c.161-.009.372.164.267.338A8.962,8.962,0,0,1,6.322,1.8c-.6.622-1.131,1.3-1.71,1.936" transform="translate(0 0)" fill="#483729"/>
      <path id="Path_767" data-name="Path 767" d="M8.754,66.621a32.636,32.636,0,0,0,4.692,1.54c.787.224,1.55.509,2.326.769a7.48,7.48,0,0,1,2.071.843c.228.167.059.393-.162.442-1.563.346-3.486-.595-4.972-1.017a19.44,19.44,0,0,1-2.4-.686,6.871,6.871,0,0,1-2.051-1.493c-.307-.28.266-.5.492-.4" transform="translate(-6.228 -50.742)" fill="#483729"/>
    </g>
  </g>
</svg>
