<svg id="Component_24_2" data-name="Component 24 – 2" xmlns="http://www.w3.org/2000/svg" width="25.382" height="32" viewBox="0 0 25.382 32">
  <path id="Path_38" data-name="Path 38" d="M24.851,22.7a3.289,3.289,0,0,0-.43-1.778,2.362,2.362,0,0,0-2.407-.822,6.548,6.548,0,0,0-.053-1.607c-.08-.808-.243-1.6-.368-2.4a17.714,17.714,0,0,0-.371-2.065c-.176-.628-.441-1.224-.63-1.849l.867,0c.285,0,1.535-.047,1.877,0,.9.116,1.287-.381,1.614-1.121a5.468,5.468,0,0,0,.431-2.265,6.074,6.074,0,0,0-.446-2.3A3.31,3.31,0,0,0,24.3,5.5c-.936-.977-2.733-.624-3.933-.624h-.2a5.6,5.6,0,0,0,.119-1.437,1.83,1.83,0,0,0-.161-1.042c-.5-.742-1.957-.56-2.689-.455a5.643,5.643,0,0,0-.709.133.861.861,0,0,0-.126.039.96.96,0,0,0-.739.845,8.006,8.006,0,0,0,.166,1.918H15.65A5.884,5.884,0,0,0,15.4,2.669a7.389,7.389,0,0,0-.446-1.543A2.164,2.164,0,0,0,12.643.008a2.715,2.715,0,0,0-2.4,1.487c-.265.476-.968,2.64-1.238,3.381H9a4.327,4.327,0,0,0-.071-1.856c-.178-.986-.986-1.134-1.881-1.107-.286.009-.633.013-.979.051a2.084,2.084,0,0,0-1.218.389.788.788,0,0,0-.091.1h0c-.581.567-.322,1.667-.185,2.43H4.494c-.506,0-1.011-.031-1.517-.025a3.771,3.771,0,0,0-1.421.174A2.8,2.8,0,0,0,.232,6.947c-.4,1.605-.381,3.743.915,4.957.361.338.93.27,1.394.275.562.006,1.123-.018,1.685-.013a8.38,8.38,0,0,0-.847,3.312,21.847,21.847,0,0,0-.388,4.606,3.062,3.062,0,0,0-.77-.063,1.965,1.965,0,0,0-1.492.945C-.187,22.4.181,24.226.181,25.814a1.989,1.989,0,0,0,.272,1.374l.018.017a.345.345,0,0,0,.291.16.6.6,0,0,0,.107.013,3.7,3.7,0,0,0,1.072,3.177,2.6,2.6,0,0,0,2.726-.121c.16,1.051,1.189,1.319,2.161,1.336,1.843.031,3.679.011,5.522.1,1.95.1,3.908.134,5.861.125.858,0,2.062-.247,2.308-1.134a2.828,2.828,0,0,0,2.469.084c1.227-.52,1.477-2.129,1.323-3.372a.5.5,0,0,0,.277-.131c.509-.443.421-1.61.408-2.191-.019-.854-.117-1.7-.145-2.558m-3.8-6.252c.116.723.186,1.449.249,2.178a11.563,11.563,0,0,0,.1,1.63,3.346,3.346,0,0,0-.465.207,5.457,5.457,0,0,0-.234-.672c-.02-.5-.1-1-.159-1.473-.1-.779-.238-1.555-.365-2.33-.123-.747-.25-1.5-.408-2.242a6.232,6.232,0,0,0-.466-1.568l.752,0a27.883,27.883,0,0,1,1,4.272M6.421,5.923q-.07.21-.138.42l-.078,0a5.492,5.492,0,0,1,.322-.726c-.038.1-.072.205-.105.3m-.208.638c-.118.374-.226.749-.308,1.132l-.047-.007a7.9,7.9,0,0,1,.27-1.127l.084,0M5.779,8.243c.016-.139.035-.278.057-.418l.045-.006c-.033.166-.062.333-.083.5a7.463,7.463,0,0,0,.113,2.138l-.031,0a6.734,6.734,0,0,1-.1-2.214m.172,2.465.028.17.009.057c-.018-.075-.035-.151-.052-.226H5.95m.072,1.478.018.016a.239.239,0,0,0,.164.137c.141.026.686.153.618-.148a.272.272,0,0,0-.012-.037H6.89c1.805,0,3.61.046,5.415.044q2.93,0,5.86-.017s0,.006,0,.01c-.068.3.477.174.618.148a.207.207,0,0,0,.079-.036,17.646,17.646,0,0,0,.523,1.7,18.355,18.355,0,0,1,.493,2.292c.151.92.3,1.84.435,2.762a3.628,3.628,0,0,0-.942-.992,12.258,12.258,0,0,0-4.52-1.716,11.961,11.961,0,0,0-8.886,1.4,4.6,4.6,0,0,0-1.077.958c0-.153,0-.3.011-.433.057-.719.16-1.438.255-2.153a19.246,19.246,0,0,1,.373-2.2,7.416,7.416,0,0,1,.5-1.731M18.564,5.923c-.033-.1-.067-.2-.105-.3a5.389,5.389,0,0,1,.269.584l-.069.006-.095-.286m.226.449a8.345,8.345,0,0,1,.416,1.871,7.182,7.182,0,0,1,.047.907l-.031,0h0a5.145,5.145,0,0,0-.032-.832,10.644,10.644,0,0,0-.478-1.952l.08,0m5.224-.017a5.114,5.114,0,0,1,.337,1.118c-1.548-.057-3.107.05-4.655.12a6.77,6.77,0,0,0-.243-1.2c.7,0,1.407-.028,2.107-.038.8-.012,1.625.007,2.432-.041.007.015.015.029.022.045m-4.947,4.156c.062-.387.118-.771.144-1.157a.1.1,0,0,0,.037,0,6.737,6.737,0,0,1-.153,1.159h-.028m-.02.215c-.016.07-.031.139-.048.209l.009-.057.024-.15h.015m4.756.41a2.155,2.155,0,0,1-.21.271.274.274,0,0,0-.065-.009c-1.382-.03-2.764-.034-4.145-.027.061-.232.1-.463.139-.636.007-.033.013-.066.02-.1l.069-.016a.044.044,0,0,0-.012-.086l-.036,0a9.965,9.965,0,0,0,.18-2.346c-.006-.154-.018-.314-.034-.476,1.55-.072,3.106-.065,4.654-.176.018.1.035.206.048.309a5.691,5.691,0,0,1,.026,1.232,29,29,0,0,0-3.343-.027.079.079,0,0,0,0,.158,29.285,29.285,0,0,0,3.333-.026,5.241,5.241,0,0,1-.184.937,4.038,4.038,0,0,1-.438,1.02M20.664,5.515c.893-.026,1.788.082,2.679,0a2.109,2.109,0,0,1,.536.586c-.772-.017-1.552.024-2.32.037-.723.011-1.454,0-2.18.029a4.475,4.475,0,0,0-.266-.612q.774-.013,1.549-.037M16.544,2.988a.871.871,0,0,1,.025-.153.96.96,0,0,1,.452-.165c.149-.031.367-.074.617-.111a8.31,8.31,0,0,1,1.6.036.744.744,0,0,1,.463.383,1.289,1.289,0,0,1,.074.485c0,.047-.008.091-.009.132-.013.427-.055.852-.068,1.279H18.643a2.651,2.651,0,0,0-.275-.264.472.472,0,0,0-.217-.158c-.015-.01-.029-.022-.045-.031a.186.186,0,0,0-.153-.012c-.019,0-.038,0-.056,0a1.7,1.7,0,0,0-.485.115c-.081,0-.162.033-.174.123a.764.764,0,0,0,0,.231H16.6c-.011-.065-.026-.131-.033-.2a8.876,8.876,0,0,1-.01-1.031c0-.209-.033-.449-.016-.655m-6.7,1c.221-.439.416-.875.6-1.329.4-.984.876-1.811,2.01-1.944a3.216,3.216,0,0,1,1.357.071,1.569,1.569,0,0,1,.85,1.131A11.759,11.759,0,0,1,15,3.363c.088.484.073,1.029.2,1.512h-.323a4.954,4.954,0,0,0-.659-2.368c-.271-.566-.693-1.319-1.374-1.444-.753-.138-1.268.6-1.676,1.13a7.672,7.672,0,0,0-.776,1.378,5.641,5.641,0,0,0-.576,1.305h-.3c.127-.284.185-.6.326-.887m4.667.885H10.29c.256-.442.488-1.249.769-1.739.291-.507,1.066-1.915,1.793-1.621.537.216.881.981,1.109,1.468a8.451,8.451,0,0,1,.548,1.891m-1.937.693,5.09,0a2.538,2.538,0,0,1,.233.432,10.091,10.091,0,0,1,.646,2,8.542,8.542,0,0,1,.055,2.423c0,.035-.005.072-.008.109-.446.026-.895.076-1.327.093-.781.031-1.559.04-2.34.008-.053,0-.052.079,0,.082.821.036,1.642.071,2.463.068.383,0,.788.006,1.189-.014a5.845,5.845,0,0,1-.053.612c-2.078.017-4.155.051-6.233.053q-2.768,0-5.535.019l-.272,0a6,6,0,0,1-.072-.782c.078-.01.156-.019.233-.032a.049.049,0,0,0,0-.093c-.081-.015-.162-.027-.244-.038,0-.029,0-.059-.006-.087-.035-.384-.059-.764-.059-1.142a2.779,2.779,0,0,0,.432-.048.043.043,0,0,0,0-.082A2.776,2.776,0,0,0,6.334,9.1,6.6,6.6,0,0,1,6.445,8,8.646,8.646,0,0,1,6.86,6.574a13.438,13.438,0,0,0,2.208-.1c.039-.006.024-.059-.009-.063a14.317,14.317,0,0,0-2.1-.079q.066-.167.136-.333a2.506,2.506,0,0,1,.217-.407c1.754-.007,3.509-.018,5.263-.019M5.033,2.993a.428.428,0,0,1,.414-.377A9.725,9.725,0,0,1,7.518,2.57c.115,0,.229-.01.333-.01.025.009.05.017.074.028a.658.658,0,0,1,.355.48c0,.187-.022.392-.018.575a8.9,8.9,0,0,1-.01,1.031c-.007.07-.022.137-.033.2H7.747a.76.76,0,0,0,0-.233c-.011-.091-.093-.121-.174-.123a1.7,1.7,0,0,0-.485-.115c-.018,0-.038,0-.056,0a.186.186,0,0,0-.153.012c-.016.01-.029.021-.045.031a.472.472,0,0,0-.217.158,2.656,2.656,0,0,0-.279.267l-1.22,0c-.013-.428-.055-.855-.068-1.284a2.806,2.806,0,0,1-.019-.6M.889,9.343c1.26.046,1.233-.255-.04-.236C.821,8.924.8,8.741.787,8.558a6.449,6.449,0,0,1-.009-.9c.042,0,.407-1.677,1.105-2.158,1,.034,1.646.1,2.448.1l1.518-.006a4.7,4.7,0,0,0-.306.765c-.127,0-.254,0-.38,0q-1.948-.012-3.9-.038a.092.092,0,0,0,0,.184q2.01.041,4.019.042l.2,0a7.441,7.441,0,0,0-.24,1.635,9.96,9.96,0,0,0,.162,2.257c-.44,0-.882.013-1.308.009-.924-.008-1.847-.019-2.77.018a.069.069,0,0,0-.07.067A5.334,5.334,0,0,1,.889,9.343m3.157,2.122-1.48-.033c-.249,0-.493-.023-.733-.009a2.2,2.2,0,0,1-.546-.823.074.074,0,0,0,.041.016c.923.054,1.846.059,2.77.068.444,0,.9.03,1.363.033l0,.018c.043.2.088.466.164.729-.528.008-1.055.014-1.583,0m-.364,7.16c.063-.729.133-1.455.249-2.178a27.877,27.877,0,0,1,1-4.28l.818-.006a4.388,4.388,0,0,0-.445,1.346c-.145.625-.293,1.25-.417,1.879-.148.754-.222,1.529-.313,2.292a10.724,10.724,0,0,0-.164,1.745,4.914,4.914,0,0,0-.4,1.051,2.759,2.759,0,0,0-.428-.214,11.388,11.388,0,0,0,.1-1.636m-2.7,8.337,0,0a.249.249,0,0,1-.264-.146.769.769,0,0,1-.034-.1,3.149,3.149,0,0,1-.041-.669,10.711,10.711,0,0,1,.391-4.29A1.46,1.46,0,0,1,2.6,20.831a2.491,2.491,0,0,1,.86.134c.148.056.282.112.419.152a9.573,9.573,0,0,0-.054,2.059A2.948,2.948,0,0,0,2.3,24.482a3.247,3.247,0,0,0-.337.6c-.038.075-.074.151-.109.226-.2.431-.331.905-.565,1.318a.833.833,0,0,1-.3.332M3.8,29.985a2.155,2.155,0,0,1-.8.233,2.109,2.109,0,0,1-.823-.194,1.211,1.211,0,0,1-.112-.081c-.817-.672-.625-1.753-.791-2.674a.919.919,0,0,0,.129-.087,4.038,4.038,0,0,0,.861-1.718,2.835,2.835,0,0,1,.667-1.054,2.811,2.811,0,0,1,.966-.516c.057.509.132,1.014.21,1.506.19,1.188.217,2.466.5,3.662.007.06.014.121.022.181s.016.095.025.142c-.3.167-.54.442-.853.6m16.556-4.632c-.062,1-.238,1.991-.342,2.989-.07.671-.237,1.324-.244,1.987a.97.97,0,0,1-.372.573,1.848,1.848,0,0,1-1,.184c-1.955,0-3.955-.1-5.928-.106-1.844-.008-3.687.094-5.531.1a2.17,2.17,0,0,1-.594-.129,2.015,2.015,0,0,1-1.059-1.149c-.059-.128-.109-.256-.153-.386-.054-.357-.12-.715-.157-1.078-.1-1-.28-1.987-.342-2.989-.058-.938-.051-1.881-.031-2.82a7.38,7.38,0,0,1,.342-2.373c.559-1.532,2.276-2.184,3.729-2.577a15.521,15.521,0,0,1,3.784-.6,14,14,0,0,1,3.857.6c1.454.393,3.171,1.045,3.729,2.577a7.374,7.374,0,0,1,.342,2.373c.02.939.028,1.882-.031,2.82m2.485,4.66a2.794,2.794,0,0,1-2.376-.127,4.677,4.677,0,0,0,.127-.82c.075-.9.208-1.8.3-2.7.088-.871.2-1.757.256-2.643a2.828,2.828,0,0,1,1.676,1.666,8.624,8.624,0,0,0,.761,1.581c.02.025.044.05.067.075l.026.052a1.348,1.348,0,0,0,.111.177c-.045.867-.121,2.313-.947,2.739m1.506-3.968a3.148,3.148,0,0,1-.041.669c-.046.185-.119.261-.2.269a6.479,6.479,0,0,1-.54-1.074,9.007,9.007,0,0,0-.67-1.409,2.637,2.637,0,0,0-1.72-1.332,11.944,11.944,0,0,0-.063-1.824c-.009-.073-.019-.146-.031-.22.146-.041.288-.1.446-.161a2.491,2.491,0,0,1,.86-.134,1.46,1.46,0,0,1,1.568.925,10.709,10.709,0,0,1,.391,4.29" transform="translate(-0.001 0)" fill="#483729"/>
</svg>
