<svg id="Component_26_1" data-name="Component 26 – 1" xmlns="http://www.w3.org/2000/svg" xmlns:xlink="http://www.w3.org/1999/xlink" width="19.144" height="32" viewBox="0 0 19.144 32">
  <defs>
    <clipPath id="clip-path">
      <rect id="Rectangle_70" data-name="Rectangle 70" width="19.144" height="32" fill="#483729"/>
    </clipPath>
  </defs>
  <g id="Group_806" data-name="Group 806" clip-path="url(#clip-path)">
    <path id="Path_673" data-name="Path 673" d="M23.208,5.5A6.354,6.354,0,0,0,20.082.92a6.507,6.507,0,0,0-6.664,0A6.575,6.575,0,0,0,10.5,5.71a6.108,6.108,0,0,0,1.389,4.512A5.61,5.61,0,0,0,13.856,11.6a5.916,5.916,0,0,0,2.38.445,7.591,7.591,0,0,0,3.755-.942,6.185,6.185,0,0,0,2.545-2.476A5.618,5.618,0,0,0,23.208,5.5M21.954,8.358a5.524,5.524,0,0,1-2.284,2.223,6.779,6.779,0,0,1-3.369.846,5.335,5.335,0,0,1-2.137-.4A5.06,5.06,0,0,1,12.4,9.791a5.476,5.476,0,0,1-1.247-4.05,5.9,5.9,0,0,1,2.616-4.3,5.844,5.844,0,0,1,5.983,0,5.71,5.71,0,0,1,2.8,4.111,5.037,5.037,0,0,1-.6,2.8" transform="translate(-7.902 0)" fill="#483729"/>
    <path id="Path_674" data-name="Path 674" d="M18.222,58.852c-.583-1.758-1.48-4.453-4.165-6.042a9.23,9.23,0,0,0-9.789.627A10.328,10.328,0,0,0,1.142,57.6a12.4,12.4,0,0,0-.91,2.958c-.076.425-.777,4.608.7,7.04,2.793,4.593,14.4,4.633,17.412-.686,1.606-2.84.379-6.543-.123-8.063m-.738,7.382c-2.734,4.837-13.293,4.8-15.833.622-1.345-2.213-.708-6.017-.639-6.4a11.174,11.174,0,0,1,.829-2.69,9.37,9.37,0,0,1,2.84-3.789,8.4,8.4,0,0,1,8.9-.568c2.444,1.443,3.261,3.893,3.789,5.493.457,1.382,1.574,4.751.111,7.335" transform="translate(0 -38.979)" fill="#483729"/>
    <path id="Path_675" data-name="Path 675" d="M16.6,55.139c-1.063,2.191.638,6.3,5.075,8.443a1.047,1.047,0,0,0,1.084-.106c3.86-2.912,4.624-7.3,3.1-9.263C23.945,51.754,17.919,52.416,16.6,55.139Z" transform="translate(-12.285 -39.732)" fill="none" stroke="#483729" stroke-width="0.5"/>
    <path id="Path_676" data-name="Path 676" d="M25.681,29.452a3.988,3.988,0,0,0,1.6.868,3.621,3.621,0,0,0,3.228-.59,2.91,2.91,0,0,0,.764-1.145" transform="translate(-19.366 -21.555)" fill="none" stroke="#463527" stroke-linecap="round" stroke-width="0.6"/>
    <path id="Path_768" data-name="Path 768" d="M16.565,54.874c-.948,1.954.569,5.616,4.527,7.531a.934.934,0,0,0,.967-.095c3.443-2.6,4.125-6.51,2.764-8.262C23.118,51.855,17.743,52.445,16.565,54.874Z" transform="translate(-11.836 -39.732)" fill="none" stroke="#483729" stroke-width="0.3"/>
  </g>
</svg>
