<svg id="Group_52" data-name="Group 52" xmlns="http://www.w3.org/2000/svg" xmlns:xlink="http://www.w3.org/1999/xlink" width="48" height="51.655" viewBox="0 0 48 51.655">
  <defs>
    <clipPath id="clip-path">
      <rect id="Rectangle_31" data-name="Rectangle 31" width="48" height="51.655" fill="#db7623"/>
    </clipPath>
  </defs>
  <g id="Group_51" data-name="Group 51" clip-path="url(#clip-path)">
    <path id="Path_377" data-name="Path 377" d="M35.937,9.022a27.13,27.13,0,0,0-7.581-2.785.51.51,0,0,0-.549.449C27.8,8.234,32.453,13.7,32.67,14.381c.289.9-2.286,4.134-2.936,5.019-.784,1.067-2.064,2.384-1.822,3.82a.845.845,0,0,0,.947.681,34.275,34.275,0,0,0,4.695-1.949,26.539,26.539,0,0,0,5.128-2.96,67.575,67.575,0,0,0,7.424,5.94.65.65,0,0,0,1.018-.41,8.784,8.784,0,0,0-.574-3.79c-.253-.7-.558-1.39-.863-2.072-.27-.6-.946-1.6-.867-2.279.124-1.064,3.172-1.868,4.074-2.347a11.313,11.313,0,0,0,3.913-2.81.681.681,0,0,0-.3-.981c-2.428-1.235-5.822-.1-8.418-.057-1.057.018-1.182-.487-1.286-1.458a23.3,23.3,0,0,1-.035-2.7A40.122,40.122,0,0,0,42.054.456C42,.089,41.1-.162,40.916.124a60.916,60.916,0,0,0-3.062,5.308,17.643,17.643,0,0,1-1.917,3.59m.759,1.7c1.1-.931,1.471-2.641,2.049-3.912.693-1.526,1.442-3.035,2.214-4.527a39.117,39.117,0,0,1,.377,4.632c.042,1.3.049,3.11,1.056,4.109,1.032,1.023,2.755.323,4.015.247a23.016,23.016,0,0,1,4.777-.225c-2.023,2.185-5.487,2.337-7.837,4.093a.553.553,0,0,0-.249.569c.482,2.424,2.268,4.824,2.512,7.279-2.306-1.611-4.464-3.9-6.629-5.693a.746.746,0,0,0-.816-.143c-1.709.921-8.229,4.833-8.624,5.028.571-1.069,3.887-4.978,4.642-5.945a1.986,1.986,0,0,0,.542-1.565c-.181-1.321-1.735-2.392-2.581-3.288a23.721,23.721,0,0,1-2.95-3.772c1.081.241,7.143,3.417,7.5,3.113" transform="translate(-17.408 0)" fill="#db7623"/>
    <path id="Path_378" data-name="Path 378" d="M92.932,86.629C91.2,85.358,88.423,85.8,86.4,85.5c-.824-.122-.856-.53-.812-1.3a18.387,18.387,0,0,1,.32-2.105,31.551,31.551,0,0,0,.158-4.417c0-.292-.661-.6-.841-.4a47.82,47.82,0,0,0-3.059,3.73,13.885,13.885,0,0,1-1.951,2.543,21.371,21.371,0,0,0-5.531-3.136.4.4,0,0,0-.485.278c-.2,1.2,2.708,6.047,2.79,6.6.108.739-2.307,2.917-2.925,3.521-.746.728-1.909,1.587-1.906,2.734a.665.665,0,0,0,.648.65,27,27,0,0,0,3.9-.911,20.878,20.878,0,0,0,4.363-1.641,53.2,53.2,0,0,0,5,5.568.512.512,0,0,0,.843-.188,6.916,6.916,0,0,0,.041-3.018c-.106-.579-.255-1.151-.4-1.72a4.492,4.492,0,0,1-.381-1.882c.233-.81,2.7-1.043,3.466-1.3a8.9,8.9,0,0,0,3.4-1.68.537.537,0,0,0-.1-.8M84.52,89.072a.372.372,0,0,0-.228.35c.054,1.66,1.128,3.352,1.021,5.006-1.352-1.321-2.6-3.013-3.843-4.439a.5.5,0,0,0-.525-.184c-1.234.423-4.774,1.855-5.338,2.034-.3.095-.576.206-.859.292.5-.646,3.239-2.943,3.846-3.5a1.336,1.336,0,0,0,.531-.978c.025-.9-2.917-4.244-3.009-5.218.69.278,4.324,2.918,4.6,2.757a6.707,6.707,0,0,0,1.825-2.24c.627-.936,1.289-1.854,1.964-2.758-.014,1.043-.764,5.346-.205,6.118.572.791,5.056.487,6.024.813-1.58,1.227-4.047,1.044-5.8,1.95" transform="translate(-45.173 -48.341)" fill="#db7623"/>
    <path id="Path_379" data-name="Path 379" d="M16.766,90.656c-1.9-.074-3.73,1.64-5.367,2.428-.667.32-.894.037-1.244-.55a16.276,16.276,0,0,1-.814-1.709A28.072,28.072,0,0,0,7.256,87.5c-.142-.217-.787-.114-.821.122a42.733,42.733,0,0,0-.392,4.27,12.353,12.353,0,0,1-.168,2.843,19,19,0,0,0-5.634.449.357.357,0,0,0-.218.446c.448.986,5.007,3.1,5.343,3.467.448.489-.243,3.3-.4,4.049-.186.908-.614,2.119-.04,2.961a.591.591,0,0,0,.8.156,24.051,24.051,0,0,0,2.414-2.613,18.568,18.568,0,0,0,2.393-3.383,47.239,47.239,0,0,0,6.457,1.6c.308.045.644-.234.527-.558a6.151,6.151,0,0,0-1.474-2.241c-.366-.373-.761-.72-1.155-1.064-.349-.305-1.07-.742-1.218-1.195-.233-.712,1.469-2.115,1.9-2.684a7.914,7.914,0,0,0,1.665-2.931.476.476,0,0,0-.475-.537m-4.972,5.99a.331.331,0,0,0,.007.371c.867,1.194,2.5,1.9,3.246,3.175-1.654-.3-3.418-.92-5.04-1.35a.445.445,0,0,0-.478.126c-.7.926-2.589,3.744-2.914,4.157-.172.219-.321.439-.487.644.043-.723.916-3.78,1.085-4.494a1.187,1.187,0,0,0-.1-.984c-.428-.671-4.262-1.669-4.815-2.34.647-.139,4.636-.008,4.755-.262a5.964,5.964,0,0,0,.226-2.558c-.005-1,.024-2.007.071-3.009.51.774,2.1,4.314,2.9,4.6.816.3,3.963-2.162,4.838-2.4-.552,1.691-2.458,2.785-3.294,4.325" transform="translate(0 -54.7)" fill="#db7623"/>
  </g>
</svg>
